<svg xmlns="http://www.w3.org/2000/svg" xmlns:xlink="http://www.w3.org/1999/xlink" version="1.1" width="940" height="788" viewBox="0 0 940 788" xml:space="preserve">
<desc>Created with Fabric.js 3.5.0</desc>
<defs>
</defs>
<rect x="0" y="0" width="100%" height="100%" fill="#48ba90"/>
<g transform="matrix(4.7608 0 0 4.7608 470.0032 394.0032)" id="242224">
<path style="stroke: none; stroke-width: 1; stroke-dasharray: none; stroke-linecap: butt; stroke-dashoffset: 0; stroke-linejoin: miter; stroke-miterlimit: 4; is-custom-font: none; font-file-url: none; fill: rgb(113,230,108); fill-rule: nonzero; opacity: 0.47;" vector-effect="non-scaling-stroke" transform=" translate(-67.5, -67.5)" d="M 67.5 135 C 104.779 135 135 104.779 135 67.5 C 135 30.2208 104.779 0 67.5 0 C 30.2208 0 0 30.2208 0 67.5 C 0 104.779 30.2208 135 67.5 135 Z" stroke-linecap="round"/>
</g>
<g transform="matrix(1 0 0 1 454.1465 365.2245)" style="" id="138439">
		
<path xml:space="preserve" font-family="Bungee Shade" font-size="505" style="stroke: none; stroke-width: 0; stroke-dasharray: none; stroke-linecap: butt; stroke-dashoffset: 0; stroke-linejoin: miter; stroke-miterlimit: 4; is-custom-font: none; font-file-url: none; fill: rgb(9,33,74); fill-rule: nonzero; opacity: 1; white-space: pre;" d="M-105.04 218.74L-105.04 218.74L-328.25 218.74Q-340.37 218.74-345.93 213.18Q-351.48 207.63-351.48 195.51L-351.48 195.51L-351.48 134.40Q-351.48 127.84-349.71 123.29Q-347.95 118.75-344.41 115.72L-344.41 115.72L-279.27 60.67Q-278.76 60.17-278.00 59.91Q-277.25 59.66-276.74 59.16L-276.74 59.16L-276.74-47.40L-318.15-47.40Q-330.27-47.40-335.83-52.95Q-341.38-58.51-341.38-70.63L-341.38-70.63L-341.38-131.73Q-341.38-138.30-339.61-142.84Q-337.85-147.39-334.31-150.42L-334.31-150.42L-269.17-205.46Q-266.64-207.48-262.35-208.75Q-258.06-210.01-253.01-210.01L-253.01-210.01L-106.56-210.01Q-94.44-210.01-88.88-204.45Q-83.33-198.90-83.33-186.78L-83.33-186.78L-83.33 56.13L-39.90 56.13Q-27.78 56.13-22.22 61.68Q-16.67 67.24-16.67 79.36L-16.67 79.36L-16.67 140.46Q-16.67 147.03-18.43 151.57Q-20.20 156.12-23.74 159.15L-23.74 159.15L-89.39 213.69Q-91.41 215.71-95.70 217.22Q-99.99 218.74-105.04 218.74ZM-263.11 158.64L-39.90 158.64Q-30.30 158.64-26.01 154.35Q-21.72 150.06-21.72 140.46L-21.72 140.46L-21.72 79.36Q-21.72 69.76-26.01 65.47Q-30.30 61.18-39.90 61.18L-39.90 61.18L-88.38 61.18L-88.38-186.78Q-88.38-196.37-92.67-200.67Q-96.96-204.96-106.56-204.96L-106.56-204.96L-253.01-204.96Q-262.60-204.96-266.89-200.67Q-271.19-196.37-271.19-186.78L-271.19-186.78L-271.19-125.67Q-271.19-116.08-266.89-111.79Q-262.60-107.49-253.01-107.49L-253.01-107.49L-206.55-107.49L-206.55 61.18L-263.11 61.18Q-272.70 61.18-276.99 65.47Q-281.29 69.76-281.29 79.36L-281.29 79.36L-281.29 140.46Q-281.29 150.06-276.99 154.35Q-272.70 158.64-263.11 158.64L-263.11 158.64ZM-67.17 115.72L-235.84 115.72L-235.84 110.67L-149.99 110.67L-149.99-154.46L-225.74-154.46L-225.74-159.51L-144.94-159.51L-144.94 110.67L-67.17 110.67L-67.17 115.72ZM262.09 218.74L262.09 218.74L21.71 218.74Q9.59 218.74 4.04 213.18Q-1.52 207.63-1.52 195.51L-1.52 195.51L-1.52 108.65Q-1.52 72.29 7.07 51.08Q15.65 29.87 30.80 17.24L30.80 17.24L95.95-37.80Q99.99-41.34 104.53-44.12Q109.08-46.89 114.13-49.42L114.13-49.42L40.90-49.42Q28.78-49.42 23.23-54.97Q17.67-60.53 17.67-72.65L17.67-72.65L17.67-131.73Q17.67-138.30 19.44-142.84Q21.21-147.39 24.74-150.42L24.74-150.42L89.89-205.46Q92.41-207.48 96.71-208.75Q101.00-210.01 106.05-210.01L106.05-210.01L255.02-210.01Q300.47-210.01 324.71-187.03Q348.95-164.05 348.95-121.13L348.95-121.13L348.95-73.66Q348.95-50.43 341.38-33.76Q333.80-17.10 319.66-5.48L319.66-5.48L254.52 49.06Q251.49 51.08 248.21 53.60Q244.92 56.13 241.39 58.15L241.39 58.15L327.24 58.15Q339.36 58.15 344.91 63.70Q350.47 69.26 350.47 81.38L350.47 81.38L350.47 140.46Q350.47 147.03 348.70 151.57Q346.94 156.12 343.40 159.15L343.40 159.15L277.75 213.69Q275.73 215.71 271.44 217.22Q267.14 218.74 262.09 218.74ZM86.86 158.64L327.24 158.64Q336.83 158.64 341.13 154.35Q345.42 150.06 345.42 140.46L345.42 140.46L345.42 81.38Q345.42 71.78 341.13 67.49Q336.83 63.20 327.24 63.20L327.24 63.20L183.31 63.20L183.31 52.59Q183.31 44.51 186.09 41.99Q188.87 39.46 196.44 37.44L196.44 37.44L265.13 15.73Q301.48 4.62 322.69-15.58Q343.90-35.78 343.90-73.66L343.90-73.66L343.90-121.13Q343.90-162.03 320.93-183.50Q297.95-204.96 255.02-204.96L255.02-204.96L106.05-204.96Q96.45-204.96 92.16-200.67Q87.87-196.37 87.87-186.78L87.87-186.78L87.87-127.69Q87.87-118.10 92.16-113.81Q96.45-109.51 106.05-109.51L106.05-109.51L215.63-109.51Q223.21-109.51 226.24-106.74Q229.27-103.96 229.27-96.38L229.27-96.38Q229.27-88.30 226.49-84.26Q223.71-80.22 215.63-78.20L215.63-78.20L147.96-56.99Q130.79-51.94 116.15-44.87Q101.50-37.80 90.90-25.68Q80.29-13.56 74.49 5.37Q68.68 24.31 68.68 53.60L68.68 53.60L68.68 140.46Q68.68 150.06 72.97 154.35Q77.26 158.64 86.86 158.64L86.86 158.64ZM151.50-7.00L151.50-7.00L269.16-45.88Q275.73-48.41 279.77-54.22Q283.81-60.02 283.81-69.62L283.81-69.62L283.81-115.57Q283.81-138.80 270.68-146.63Q257.55-154.46 234.82-154.46L234.82-154.46L133.32-154.46L133.32-159.51L234.82-159.51Q260.58-159.51 274.72-150.17Q288.86-140.82 288.86-115.57L288.86-115.57L288.86-69.62Q288.86-58.00 284.06-51.44Q279.26-44.87 271.19-41.34L271.19-41.34L153.52-2.45Q139.38 2.60 133.82 9.92Q128.27 17.24 128.27 34.41L128.27 34.41L128.27 108.14L299.97 108.14L299.97 113.19L123.72 113.19L123.72 34.41Q123.72 15.73 129.78 6.89Q135.84-1.95 151.50-7.00Z"/></g>
</svg>