<svg xmlns="http://www.w3.org/2000/svg" xmlns:xlink="http://www.w3.org/1999/xlink" version="1.1" width="940" height="788" viewBox="0 0 940 788" xml:space="preserve">
<desc>Created with Fabric.js 3.5.0</desc>
<defs>
</defs>
<rect x="0" y="0" width="100%" height="100%" fill="#48ba90"/>
<g transform="matrix(4.7608 0 0 4.7608 470.0032 394.0032)" id="242224">
<path style="stroke: none; stroke-width: 1; stroke-dasharray: none; stroke-linecap: butt; stroke-dashoffset: 0; stroke-linejoin: miter; stroke-miterlimit: 4; is-custom-font: none; font-file-url: none; fill: rgb(113,230,108); fill-rule: nonzero; opacity: 0.47;" vector-effect="non-scaling-stroke" transform=" translate(-67.5, -67.5)" d="M 67.5 135 C 104.779 135 135 104.779 135 67.5 C 135 30.2208 104.779 0 67.5 0 C 30.2208 0 0 30.2208 0 67.5 C 0 104.779 30.2208 135 67.5 135 Z" stroke-linecap="round"/>
</g>
<g transform="matrix(10.9744 0 0 10.9744 470.0009 371.664)" id="426162">
<path style="stroke: none; stroke-width: 1; stroke-dasharray: none; stroke-linecap: butt; stroke-dashoffset: 0; stroke-linejoin: miter; stroke-miterlimit: 4; is-custom-font: none; font-file-url: none; fill: rgb(136,102,102); fill-rule: nonzero; opacity: 1;" vector-effect="non-scaling-stroke" transform=" translate(-24, -24)" d="M 42.93 25.475 L 25.21 14.243 v -1.723 c 2.905 -0.564 5.1 -3.117 5.1 -6.188 c 0 -3.484 -2.824 -6.31 -6.31 -6.31 c -3.485 0 -6.31 2.825 -6.31 6.31 h 2.524 c 0 -2.09 1.694 -3.785 3.786 -3.785 s 3.786 1.695 3.786 3.785 c 0 2.093 -1.694 3.786 -3.786 3.786 v 0.008 h -1.263 v 4.149 L 5.07 25.475 l 0.033 0.051 H 5.07 v 2.524 h 10.096 v 19.928 h 17.667 V 28.05 H 42.93 v -2.524 h -0.033 L 42.93 25.475 z M 30.31 41.772 H 17.69 v -3.891 H 30.31 V 41.772 z M 32.834 25.525 V 24 H 15.167 v 1.525 H 9.703 L 24 16.464 l 14.297 9.062 H 32.834 z" stroke-linecap="round"/>
</g>
</svg>