<svg id="svg" version="1.1" xmlns="http://www.w3.org/2000/svg" xmlns:xlink="http://www.w3.org/1999/xlink" width="400" height="152.1951219512195" viewBox="0, 0, 400,152.1951219512195"><g id="svgg"><path id="path0" d="M71.864 21.957 C 69.263 22.854,68.982 26.655,71.429 27.840 C 72.624 28.418,73.303 28.437,74.393 27.920 C 78.164 26.137,75.813 20.594,71.864 21.957 M90.370 25.443 C 89.114 26.063,88.321 27.683,88.668 28.923 C 89.737 32.739,95.167 32.344,95.167 28.451 C 95.167 25.987,92.570 24.359,90.370 25.443 M53.163 27.708 C 50.345 29.133,51.060 33.339,54.193 33.768 C 55.668 33.970,56.982 33.263,57.601 31.933 C 58.951 29.034,56.033 26.257,53.163 27.708 M72.542 32.608 C 72.244 32.755,72.000 32.935,72.000 33.009 C 72.000 33.083,71.877 33.265,71.728 33.415 C 70.964 34.179,71.638 36.133,72.799 36.516 C 74.521 37.085,75.911 36.177,75.911 34.484 C 75.911 32.690,74.251 31.765,72.542 32.608 M86.658 36.259 C 85.972 36.967,85.795 38.695,86.375 39.020 C 86.535 39.110,86.667 39.286,86.667 39.412 C 86.667 39.537,86.891 39.689,87.165 39.750 C 87.439 39.810,87.706 39.928,87.758 40.013 C 87.885 40.219,88.621 40.209,88.750 40.000 C 88.807 39.908,88.985 39.833,89.145 39.833 C 89.996 39.833,90.648 38.301,90.314 37.089 C 89.905 35.609,87.760 35.122,86.658 36.259 M106.215 36.690 C 104.271 37.033,103.240 39.422,104.208 41.337 C 105.574 44.038,109.524 43.589,110.152 40.663 C 110.675 38.224,108.717 36.249,106.215 36.690 M60.500 37.354 C 59.863 37.608,59.363 38.153,59.238 38.729 C 59.176 39.016,59.040 39.305,58.937 39.372 C 58.804 39.459,58.811 39.496,58.958 39.497 C 59.080 39.499,59.167 39.717,59.167 40.022 C 59.167 40.911,60.129 41.667,61.262 41.667 C 61.760 41.667,62.167 41.592,62.167 41.500 C 62.167 41.408,62.266 41.333,62.388 41.333 C 62.807 41.333,63.330 40.570,63.435 39.806 C 63.672 38.073,62.065 36.730,60.500 37.354 M40.257 40.622 C 37.633 41.288,37.009 44.860,39.226 46.524 C 40.078 47.163,42.072 47.100,42.943 46.407 C 45.844 44.098,43.811 39.719,40.257 40.622 M98.333 44.314 C 98.333 44.395,98.190 44.499,98.014 44.545 C 96.300 44.993,97.114 48.368,98.997 48.621 C 101.320 48.932,102.616 45.525,100.532 44.585 C 100.331 44.495,100.167 44.364,100.167 44.294 C 100.167 44.224,99.754 44.167,99.250 44.167 C 98.746 44.167,98.333 44.233,98.333 44.314 M50.750 47.119 C 50.333 47.220,49.667 47.823,49.667 48.098 C 49.667 48.212,49.582 48.334,49.478 48.368 C 48.820 48.588,49.653 51.018,50.476 51.277 C 50.627 51.325,50.923 51.447,51.135 51.549 C 51.423 51.687,51.602 51.683,51.841 51.534 C 52.018 51.423,52.262 51.333,52.383 51.333 C 52.839 51.333,53.833 49.942,53.833 49.305 C 53.833 47.770,52.364 46.729,50.750 47.119 M33.958 58.656 C 30.899 60.345,31.965 64.970,35.391 64.875 C 39.452 64.763,39.684 58.681,35.639 58.387 C 34.786 58.325,34.463 58.377,33.958 58.656 M45.733 59.643 C 44.002 60.558,44.039 62.927,45.796 63.761 C 46.776 64.226,48.400 63.666,48.591 62.798 C 48.647 62.543,48.762 62.333,48.847 62.333 C 48.931 62.333,49.000 62.033,49.000 61.667 C 49.000 61.300,48.925 61.000,48.833 61.000 C 48.742 61.000,48.667 60.862,48.667 60.692 C 48.667 59.760,46.784 59.087,45.733 59.643 M48.786 73.449 C 47.463 73.793,46.980 76.245,48.044 77.215 C 48.700 77.813,50.167 78.253,50.167 77.851 C 50.167 77.770,50.356 77.655,50.588 77.597 C 51.801 77.293,52.280 75.396,51.426 74.277 C 50.816 73.477,49.847 73.174,48.786 73.449 M38.083 76.773 C 34.418 77.649,35.066 83.248,38.833 83.250 C 40.817 83.250,42.000 82.038,42.000 80.003 C 42.000 77.942,40.020 76.310,38.083 76.773 M96.250 82.290 C 94.828 83.013,94.371 84.095,94.958 85.344 C 95.818 87.172,98.818 86.862,99.155 84.911 C 99.488 82.984,97.828 81.487,96.250 82.290 M57.508 84.622 C 56.648 84.960,55.947 86.456,56.333 87.127 C 56.425 87.286,56.574 87.627,56.666 87.883 C 57.097 89.097,59.771 89.139,60.374 87.940 C 61.455 85.790,59.700 83.759,57.508 84.622 M102.773 88.577 C 100.922 89.237,99.976 91.444,100.848 93.070 C 102.728 96.578,108.043 94.345,106.908 90.524 C 106.383 88.755,104.612 87.922,102.773 88.577 M83.923 88.793 C 82.579 89.115,81.913 91.349,82.856 92.367 C 83.438 92.995,84.616 93.445,85.019 93.193 C 85.189 93.087,85.435 93.000,85.564 93.000 C 85.931 93.000,86.806 91.899,86.920 91.293 C 87.203 89.784,85.549 88.404,83.923 88.793 M69.667 89.777 C 68.892 90.093,67.858 92.333,68.487 92.333 C 68.571 92.333,68.686 92.540,68.741 92.792 C 69.102 94.425,72.306 94.312,72.815 92.647 C 73.431 90.639,71.615 88.984,69.667 89.777 M49.250 91.762 C 47.268 92.791,46.819 95.399,48.355 96.970 C 51.372 100.056,55.981 95.749,53.020 92.611 C 51.958 91.486,50.440 91.144,49.250 91.762 M86.093 98.341 C 84.704 99.034,84.113 99.932,84.112 101.352 C 84.108 105.362,90.346 105.494,90.635 101.490 C 90.815 99.004,88.282 97.249,86.093 98.341 M67.114 99.336 C 65.767 99.741,64.724 101.250,64.874 102.579 C 65.233 105.766,69.567 106.757,71.069 103.996 C 72.511 101.347,70.055 98.453,67.114 99.336 " stroke="none" fill="#18728c" fill-rule="evenodd"></path><path id="path1" d="M152.903 59.524 C 152.440 59.749,152.000 60.523,152.000 61.114 C 152.000 63.031,154.696 63.501,155.442 61.714 C 156.070 60.213,154.419 58.789,152.903 59.524 M286.833 67.333 L 286.833 74.833 288.250 74.833 L 289.667 74.833 289.667 67.333 L 289.667 59.833 288.250 59.833 L 286.833 59.833 286.833 67.333 M276.482 60.729 C 271.989 62.315,270.153 67.314,272.588 71.333 C 273.346 72.585,274.868 73.950,275.833 74.246 C 276.063 74.317,276.325 74.431,276.417 74.500 C 278.053 75.735,284.967 73.954,283.444 72.689 C 283.322 72.588,283.047 72.166,282.835 71.752 C 282.385 70.879,282.359 70.872,281.538 71.399 C 278.414 73.406,274.248 71.226,274.280 67.599 C 274.313 63.741,278.732 61.707,281.928 64.078 C 282.257 64.322,282.302 64.286,282.969 63.240 C 283.828 61.892,283.833 61.975,282.873 61.359 C 281.203 60.287,278.491 60.020,276.482 60.729 M113.500 67.667 L 113.500 74.833 118.583 74.833 L 123.667 74.833 123.667 73.503 L 123.667 72.173 119.958 72.128 L 116.250 72.083 116.206 66.292 L 116.162 60.500 114.831 60.500 L 113.500 60.500 113.500 67.667 M167.167 67.583 L 167.167 74.667 172.083 74.667 L 177.000 74.667 177.000 73.337 L 177.000 72.007 173.458 71.962 L 169.917 71.917 169.869 70.458 L 169.820 69.000 172.244 69.000 L 174.667 69.000 174.667 67.671 L 174.667 66.342 172.292 66.296 L 169.917 66.250 169.868 64.848 C 169.806 63.068,169.573 63.172,173.625 63.169 L 177.000 63.167 177.000 61.833 L 177.000 60.500 172.083 60.500 L 167.167 60.500 167.167 67.583 M197.900 61.208 C 197.947 61.598,198.030 62.404,198.083 63.000 C 198.282 65.226,198.251 65.167,199.248 65.167 C 200.407 65.167,200.439 65.106,200.575 62.625 L 200.692 60.500 199.253 60.500 L 197.813 60.500 197.900 61.208 M225.373 67.542 L 225.417 74.583 228.067 74.629 C 233.876 74.730,236.750 72.398,236.750 67.583 C 236.750 62.833,233.886 60.504,228.040 60.501 L 225.330 60.500 225.373 67.542 M231.522 63.638 C 236.132 65.627,234.358 72.000,229.194 72.000 L 228.167 72.000 228.167 67.694 C 228.167 65.326,228.223 63.331,228.292 63.259 C 228.510 63.033,230.720 63.292,231.522 63.638 M129.833 63.980 C 127.223 65.077,125.999 67.080,126.212 69.901 C 126.568 74.615,131.889 76.778,135.292 73.594 C 136.183 72.760,136.182 72.752,135.106 71.689 L 134.212 70.806 133.862 71.251 C 133.233 72.051,131.167 72.751,131.167 72.165 C 131.167 72.072,132.254 70.687,133.583 69.086 C 136.256 65.868,136.220 65.942,135.458 65.217 C 134.021 63.849,131.475 63.290,129.833 63.980 M296.667 63.980 C 294.057 65.077,292.832 67.080,293.045 69.901 C 293.402 74.623,298.717 76.784,302.125 73.594 C 303.016 72.760,303.015 72.752,301.939 71.689 L 301.045 70.806 300.695 71.251 C 300.066 72.051,298.000 72.751,298.000 72.165 C 298.000 72.072,299.087 70.687,300.417 69.086 C 303.090 65.868,303.054 65.942,302.292 65.217 C 300.854 63.849,298.308 63.290,296.667 63.980 M309.267 64.016 C 306.753 65.036,305.519 67.103,305.711 69.974 C 306.011 74.473,310.556 76.523,314.378 73.884 C 314.723 73.646,315.029 73.480,315.058 73.517 C 315.086 73.553,315.319 73.865,315.574 74.208 C 316.627 75.623,316.667 75.454,316.667 69.500 C 316.667 63.520,316.653 63.462,315.522 64.750 C 314.900 65.459,315.000 65.458,314.078 64.754 C 312.677 63.685,310.795 63.396,309.267 64.016 M337.338 63.996 C 333.092 65.571,332.398 71.580,336.167 74.146 C 338.303 75.600,341.377 75.286,343.160 73.430 L 343.736 72.829 342.749 71.832 L 341.762 70.835 341.422 71.239 C 340.729 72.066,339.063 72.674,338.774 72.206 C 338.731 72.135,339.813 70.729,341.180 69.081 C 344.025 65.649,343.842 66.020,343.058 65.258 C 341.604 63.846,339.184 63.312,337.338 63.996 M142.262 64.238 C 141.902 64.372,141.387 64.644,141.117 64.844 L 140.627 65.206 140.183 64.686 C 139.934 64.394,139.578 64.167,139.370 64.167 L 139.000 64.167 139.000 69.500 L 139.000 74.833 140.407 74.833 L 141.815 74.833 141.866 71.336 L 141.917 67.839 142.462 67.295 C 143.260 66.496,144.573 66.497,145.372 67.295 L 145.917 67.839 145.970 71.336 L 146.024 74.833 147.429 74.833 L 148.833 74.833 148.833 71.651 C 148.833 67.508,148.572 66.492,147.173 65.208 C 145.982 64.114,143.772 63.677,142.262 64.238 M183.054 64.259 C 182.764 64.386,182.478 64.568,182.420 64.662 C 182.248 64.940,181.741 64.858,181.417 64.500 C 180.534 63.524,180.500 63.709,180.500 69.500 L 180.500 74.833 181.833 74.833 L 183.167 74.833 183.167 71.408 C 183.167 67.143,183.460 66.412,185.032 66.757 C 185.898 66.947,186.000 67.427,186.000 71.325 L 186.000 74.833 187.417 74.833 L 188.833 74.833 188.833 71.159 L 188.833 67.485 189.242 67.076 C 189.789 66.529,190.495 66.541,191.061 67.106 L 191.500 67.545 191.500 71.189 L 191.500 74.833 192.833 74.833 L 194.167 74.833 194.167 70.886 C 194.167 66.387,194.083 66.025,192.786 64.915 C 191.483 63.799,189.212 63.672,187.999 64.647 L 187.356 65.164 186.868 64.753 C 185.941 63.973,184.217 63.750,183.054 64.259 M207.164 64.153 C 203.969 64.780,203.502 69.309,206.495 70.643 C 206.879 70.814,207.806 70.936,209.165 70.994 C 211.052 71.075,211.252 71.113,211.308 71.406 C 211.434 72.066,210.949 72.167,207.635 72.167 L 204.500 72.167 204.500 73.500 L 204.500 74.833 207.958 74.830 C 212.352 74.825,213.123 74.527,213.892 72.538 C 214.887 69.963,213.294 68.353,209.584 68.183 L 207.417 68.083 207.417 67.500 L 207.417 66.917 210.375 66.871 L 213.333 66.826 213.333 65.413 L 213.333 64.000 210.542 64.019 C 209.006 64.030,207.486 64.090,207.164 64.153 M240.611 64.111 C 240.550 64.172,240.500 66.610,240.500 69.528 L 240.500 74.833 241.818 74.833 L 243.137 74.833 243.193 71.542 C 243.269 67.160,243.482 66.836,246.298 66.834 L 247.847 66.833 247.798 65.458 L 247.750 64.083 245.998 64.099 C 244.195 64.114,243.468 64.309,242.518 65.032 C 242.121 65.334,242.118 65.333,241.629 64.667 C 241.162 64.032,240.857 63.866,240.611 64.111 M324.161 64.147 C 323.665 64.310,323.037 64.653,322.615 64.993 C 322.341 65.214,322.274 65.186,321.895 64.702 C 320.874 63.398,320.833 63.584,320.833 69.500 L 320.833 74.833 322.167 74.833 L 323.500 74.833 323.500 71.661 C 323.500 69.278,323.560 68.347,323.740 67.915 C 324.290 66.598,326.029 66.285,327.062 67.318 L 327.583 67.839 327.634 71.336 L 327.685 74.833 329.093 74.833 L 330.500 74.833 330.500 71.475 C 330.500 66.924,329.989 65.553,327.902 64.511 C 327.035 64.078,324.983 63.878,324.161 64.147 M346.944 64.111 C 346.883 64.172,346.833 66.610,346.833 69.528 L 346.833 74.833 348.250 74.833 L 349.667 74.833 349.673 71.542 C 349.681 67.104,349.849 66.836,352.632 66.834 L 354.180 66.833 354.132 65.458 L 354.083 64.083 352.331 64.099 C 350.528 64.114,349.801 64.309,348.851 65.032 C 348.454 65.334,348.452 65.333,347.962 64.667 C 347.495 64.032,347.190 63.866,346.944 64.111 M359.833 64.159 C 357.321 64.678,356.267 67.817,357.970 69.705 C 358.871 70.703,359.437 70.892,361.832 70.994 C 363.719 71.075,363.919 71.113,363.975 71.406 C 364.101 72.066,363.616 72.167,360.301 72.167 L 357.167 72.167 357.167 73.500 L 357.167 74.833 360.589 74.833 C 364.911 74.833,365.669 74.563,366.513 72.717 C 367.694 70.137,366.020 68.356,362.251 68.183 L 360.083 68.083 360.083 67.500 L 360.083 66.917 363.042 66.871 L 366.000 66.826 366.000 65.413 L 366.000 64.000 363.208 64.019 C 361.673 64.030,360.154 64.093,359.833 64.159 M152.500 69.500 L 152.500 74.833 153.833 74.833 L 155.167 74.833 155.167 69.500 L 155.167 64.167 153.833 64.167 L 152.500 64.167 152.500 69.500 M250.862 68.042 L 250.917 71.917 251.519 72.843 C 252.647 74.577,254.710 75.463,256.362 74.923 C 257.336 74.605,257.460 74.652,257.097 75.206 C 256.697 75.817,255.518 76.333,254.523 76.333 L 253.667 76.333 253.667 77.667 L 253.667 79.000 254.744 79.000 C 257.268 79.000,259.359 77.541,260.195 75.198 C 260.432 74.535,260.476 73.637,260.487 69.285 L 260.500 64.153 259.125 64.202 L 257.750 64.250 257.667 67.583 C 257.583 70.948,257.554 71.117,256.949 71.789 C 256.209 72.611,254.496 72.427,253.914 71.463 C 253.619 70.976,253.577 70.552,253.527 67.542 L 253.470 64.167 252.138 64.167 L 250.806 64.167 250.862 68.042 M132.281 66.591 C 132.313 66.687,132.206 66.912,132.044 67.091 C 131.882 67.270,131.205 68.148,130.539 69.042 C 129.191 70.849,129.084 70.918,128.928 70.083 C 128.668 68.698,129.382 67.192,130.553 66.653 C 131.276 66.321,132.182 66.288,132.281 66.591 M299.077 66.490 C 299.184 66.662,296.249 70.667,296.016 70.667 C 295.487 70.667,295.667 68.563,296.279 67.612 C 296.867 66.697,298.741 65.945,299.077 66.490 M312.050 66.602 C 313.706 67.438,314.339 69.153,313.560 70.699 C 312.148 73.504,308.485 72.539,308.456 69.354 C 308.437 67.231,310.367 65.753,312.050 66.602 M339.755 66.508 C 339.834 66.635,337.746 69.654,336.882 70.662 C 336.378 71.251,336.391 68.600,336.897 67.763 C 337.509 66.753,339.394 65.924,339.755 66.508 " stroke="none" fill="#fcc444" fill-rule="evenodd"></path><path id="path2" d="M0.000 76.083 L 0.000 152.167 200.000 152.167 L 400.000 152.167 400.000 76.083 L 400.000 0.000 200.000 0.000 L 0.000 0.000 0.000 76.083 M74.814 22.035 C 78.070 24.022,76.566 28.501,72.711 28.299 L 71.313 28.225 70.498 27.348 C 69.130 25.875,69.118 24.131,70.466 22.697 C 71.349 21.759,71.466 21.713,73.064 21.686 C 73.976 21.671,74.334 21.742,74.814 22.035 M93.164 25.136 C 93.211 25.199,93.530 25.392,93.872 25.566 C 94.213 25.740,94.537 26.021,94.591 26.191 C 94.645 26.361,94.750 26.500,94.825 26.500 C 95.217 26.500,95.685 29.033,95.333 29.250 C 95.242 29.307,95.167 29.500,95.167 29.679 C 95.167 30.119,93.801 31.500,93.367 31.500 C 93.176 31.500,92.973 31.575,92.917 31.667 C 92.453 32.417,89.000 31.153,89.000 30.233 C 89.000 30.120,88.906 29.997,88.792 29.958 C 88.646 29.910,88.583 29.442,88.583 28.396 C 88.583 26.755,89.148 25.636,90.098 25.398 C 90.319 25.343,90.500 25.235,90.500 25.160 C 90.500 24.856,92.935 24.834,93.164 25.136 M56.233 27.389 C 59.548 29.228,58.329 34.008,54.548 33.997 C 50.453 33.986,49.997 27.945,54.029 27.113 C 54.572 27.001,55.814 27.157,56.233 27.389 M74.754 32.170 C 77.102 33.047,76.619 36.510,74.082 36.984 C 70.980 37.563,69.994 33.040,73.018 32.098 C 73.719 31.880,74.007 31.892,74.754 32.170 M89.503 35.643 C 89.822 35.813,90.196 36.169,90.333 36.434 C 90.471 36.700,90.640 36.942,90.708 36.972 C 90.967 37.087,90.829 38.550,90.511 39.066 C 88.900 41.672,85.098 40.072,85.846 37.104 C 86.239 35.542,87.996 34.840,89.503 35.643 M107.783 36.506 C 111.714 37.356,111.034 43.537,107.027 43.385 C 102.504 43.214,102.365 37.091,106.867 36.352 C 106.931 36.342,107.344 36.411,107.783 36.506 M61.987 37.000 C 62.447 37.000,63.464 37.969,63.675 38.608 C 64.682 41.661,60.354 43.330,58.914 40.444 C 58.115 38.842,59.831 36.490,61.472 36.939 C 61.594 36.973,61.826 37.000,61.987 37.000 M42.717 40.616 C 44.328 41.427,45.026 43.655,44.183 45.298 C 42.509 48.563,37.671 47.482,37.639 43.837 C 37.616 41.277,40.456 39.476,42.717 40.616 M100.606 44.309 C 101.635 45.054,102.448 47.333,101.685 47.333 C 101.603 47.333,101.492 47.502,101.439 47.708 C 101.040 49.249,98.085 49.300,97.159 47.783 C 95.748 45.468,98.449 42.746,100.606 44.309 M52.648 46.907 C 54.425 47.826,54.477 50.466,52.737 51.456 C 49.735 53.164,47.475 48.804,50.417 46.978 C 51.014 46.607,52.007 46.576,52.648 46.907 M36.920 58.480 C 38.168 59.084,38.932 60.497,38.784 61.932 C 38.466 65.006,34.842 66.241,32.806 63.968 C 32.112 63.193,31.565 61.185,31.978 60.930 C 32.058 60.881,32.171 60.601,32.230 60.310 C 32.346 59.727,33.481 58.500,33.904 58.500 C 34.048 58.500,34.167 58.430,34.167 58.344 C 34.167 57.917,35.934 58.004,36.920 58.480 M48.403 59.894 C 49.347 60.838,49.524 61.666,49.003 62.708 C 47.833 65.051,44.468 64.552,44.231 62.000 C 44.000 59.507,46.668 58.160,48.403 59.894 M155.147 59.698 C 155.907 60.475,155.908 61.808,155.149 62.516 C 153.880 63.702,151.833 62.797,151.833 61.051 C 151.833 59.373,153.974 58.499,155.147 59.698 M289.793 67.292 L 289.750 74.917 288.250 74.917 L 286.750 74.917 286.707 67.500 C 286.683 63.421,286.699 59.990,286.743 59.875 C 286.799 59.730,287.278 59.667,288.330 59.667 L 289.837 59.667 289.793 67.292 M281.750 60.557 C 282.025 60.708,282.330 60.832,282.428 60.832 C 282.920 60.835,284.018 62.037,283.780 62.311 C 283.650 62.461,283.514 62.658,283.478 62.750 C 283.322 63.152,282.407 64.500,282.291 64.500 C 282.221 64.500,281.872 64.289,281.515 64.030 C 278.679 61.976,274.705 63.899,274.541 67.405 C 274.366 71.143,278.642 73.435,281.532 71.152 C 281.870 70.885,282.208 70.667,282.283 70.667 C 282.460 70.667,283.833 72.951,283.833 73.245 C 283.833 73.536,282.299 74.483,281.611 74.616 C 281.321 74.673,281.030 74.801,280.965 74.901 C 280.791 75.167,277.244 75.144,276.975 74.875 C 276.860 74.760,276.650 74.666,276.508 74.666 C 275.084 74.662,271.990 71.596,271.718 69.917 C 271.665 69.592,271.557 69.285,271.478 69.236 C 271.271 69.108,271.299 66.551,271.515 65.845 C 272.362 63.076,273.855 61.560,277.000 60.275 C 277.538 60.056,281.235 60.275,281.750 60.557 M116.461 66.125 L 116.504 71.833 120.082 71.833 L 123.660 71.833 123.755 72.212 C 123.808 72.420,123.828 73.114,123.800 73.753 L 123.750 74.917 118.542 74.961 L 113.333 75.005 113.333 67.663 L 113.333 60.321 114.875 60.369 L 116.417 60.417 116.461 66.125 M177.167 61.917 L 177.167 63.500 173.583 63.500 L 170.000 63.500 170.000 64.750 L 170.000 66.000 172.313 66.000 C 175.088 66.000,175.033 65.964,174.966 67.776 L 174.917 69.083 172.458 69.129 L 170.000 69.176 170.000 70.504 L 170.000 71.833 173.590 71.833 L 177.179 71.833 177.131 73.375 L 177.083 74.917 172.083 74.917 L 167.083 74.917 167.040 67.625 L 166.996 60.333 172.082 60.333 L 177.167 60.333 177.167 61.917 M200.852 60.407 C 200.939 60.495,200.751 63.238,200.580 64.384 L 200.460 65.180 199.272 65.132 L 198.083 65.083 197.980 63.667 C 197.922 62.887,197.819 61.935,197.750 61.550 C 197.544 60.395,197.623 60.333,199.300 60.333 C 200.113 60.333,200.811 60.367,200.852 60.407 M231.667 60.596 C 232.844 61.000,233.667 61.385,233.667 61.532 C 233.667 61.606,233.760 61.669,233.875 61.672 C 234.748 61.694,236.617 64.460,237.013 66.319 C 237.634 69.224,235.528 73.297,233.000 74.082 C 232.771 74.153,232.544 74.273,232.495 74.348 C 232.314 74.627,230.338 74.884,227.875 74.949 L 225.333 75.016 225.333 67.675 L 225.333 60.333 228.125 60.336 C 230.203 60.338,231.108 60.404,231.667 60.596 M133.117 63.686 C 134.965 64.421,136.497 65.585,136.228 66.048 C 136.074 66.313,135.174 67.493,134.803 67.917 C 134.642 68.100,134.152 68.700,133.714 69.250 C 133.275 69.800,132.835 70.325,132.736 70.417 C 132.636 70.508,132.271 70.940,131.924 71.375 L 131.293 72.167 131.980 72.167 C 132.358 72.167,132.667 72.092,132.667 72.000 C 132.667 71.908,132.756 71.833,132.864 71.833 C 133.139 71.833,133.833 71.156,133.833 70.888 C 133.833 70.420,134.420 70.704,135.275 71.587 C 136.553 72.906,136.206 73.723,133.929 74.755 C 132.878 75.232,129.811 75.327,129.532 74.891 C 129.468 74.792,129.235 74.655,129.012 74.585 C 128.083 74.295,126.333 72.204,126.333 71.384 C 126.333 71.173,126.258 71.000,126.167 71.000 C 125.960 71.000,125.939 67.891,126.145 67.763 C 126.225 67.714,126.336 67.445,126.392 67.165 C 126.875 64.751,130.754 62.744,133.117 63.686 M228.333 67.691 L 228.333 71.881 229.645 71.772 C 235.433 71.289,235.381 63.500,229.590 63.500 L 228.333 63.500 228.333 67.691 M299.950 63.686 C 301.798 64.421,303.330 65.585,303.061 66.048 C 302.874 66.371,301.959 67.568,301.760 67.750 C 301.661 67.842,301.168 68.442,300.667 69.083 C 300.165 69.725,299.672 70.325,299.571 70.417 C 299.471 70.508,299.104 70.940,298.757 71.375 L 298.127 72.167 298.813 72.167 C 299.191 72.167,299.500 72.092,299.500 72.000 C 299.500 71.908,299.589 71.833,299.698 71.833 C 299.972 71.833,300.667 71.156,300.667 70.888 C 300.667 70.420,301.253 70.704,302.108 71.587 C 303.386 72.906,303.039 73.723,300.763 74.755 C 299.711 75.232,296.644 75.327,296.365 74.891 C 296.302 74.792,296.065 74.654,295.839 74.583 C 292.959 73.683,291.885 68.555,293.969 65.649 C 295.148 64.005,298.220 62.996,299.950 63.686 M312.595 63.774 C 313.047 63.925,313.713 64.262,314.075 64.524 C 314.885 65.110,314.864 65.111,315.474 64.500 C 315.771 64.203,316.149 64.000,316.404 64.000 L 316.833 64.000 316.833 69.500 L 316.833 75.000 316.395 75.000 C 315.978 75.000,315.715 74.790,315.181 74.029 C 314.952 73.702,314.382 73.857,314.000 74.350 C 313.430 75.085,309.581 75.481,308.967 74.867 C 308.857 74.757,308.658 74.667,308.525 74.667 C 307.802 74.667,306.332 72.966,305.782 71.494 C 305.480 70.686,305.379 67.928,305.645 67.763 C 305.725 67.714,305.838 67.434,305.897 67.142 C 306.386 64.694,309.963 62.896,312.595 63.774 M340.885 63.779 C 342.243 64.217,343.833 65.414,343.833 65.998 C 343.833 66.121,342.997 67.178,341.260 69.250 C 340.953 69.617,340.279 70.423,339.763 71.042 L 338.825 72.167 339.500 72.167 C 340.078 72.167,340.283 72.059,340.925 71.417 C 341.859 70.483,341.763 70.471,342.899 71.663 C 343.966 72.781,343.968 72.947,342.925 73.871 C 340.496 76.022,336.447 75.523,334.591 72.844 C 331.394 68.231,335.657 62.092,340.885 63.779 M145.949 64.181 C 148.387 65.292,148.833 66.384,148.833 71.239 L 148.833 75.000 147.333 75.000 L 145.833 75.000 145.833 71.651 C 145.833 67.623,145.520 66.833,143.922 66.833 C 142.281 66.833,142.013 67.491,142.006 71.542 L 142.000 75.000 140.500 75.000 L 139.000 75.000 139.000 69.500 L 139.000 64.000 139.402 64.000 C 139.642 64.000,139.969 64.197,140.214 64.488 C 140.491 64.817,140.679 64.921,140.793 64.807 C 141.757 63.843,144.481 63.513,145.949 64.181 M186.722 64.383 L 187.333 64.850 187.945 64.383 C 189.738 63.016,192.894 63.978,194.002 66.229 L 194.506 67.254 194.462 71.085 L 194.417 74.917 192.917 74.917 L 191.417 74.917 191.333 71.218 C 191.242 67.173,191.147 66.825,190.132 66.839 C 189.007 66.854,188.833 67.477,188.833 71.498 L 188.833 75.000 187.333 75.000 L 185.833 75.000 185.833 71.326 L 185.833 67.652 185.424 67.242 C 184.914 66.732,184.271 66.748,183.667 67.286 C 183.621 67.327,183.546 69.061,183.500 71.139 L 183.417 74.917 181.917 74.917 L 180.417 74.917 180.417 69.500 L 180.417 64.083 180.808 64.028 C 181.038 63.995,181.353 64.117,181.574 64.325 L 181.949 64.677 182.683 64.248 C 183.755 63.622,185.814 63.691,186.722 64.383 M213.465 65.375 L 213.417 66.917 210.472 67.000 C 207.371 67.088,207.241 67.115,207.407 67.635 C 207.501 67.933,207.703 67.968,209.713 68.029 C 212.098 68.102,212.334 68.179,213.431 69.249 C 214.923 70.704,214.322 73.642,212.333 74.618 C 211.631 74.963,211.352 74.987,207.958 74.993 L 204.333 75.000 204.333 73.417 L 204.333 71.833 207.657 71.833 C 211.005 71.833,211.423 71.759,210.994 71.243 C 210.838 71.055,210.341 71.000,208.796 71.000 C 205.706 71.000,204.491 70.118,204.359 67.780 C 204.186 64.734,205.491 63.883,210.381 63.853 L 213.513 63.833 213.465 65.375 M241.646 64.418 C 242.084 65.061,242.202 65.108,242.538 64.772 C 242.663 64.647,242.950 64.487,243.174 64.418 C 243.399 64.349,243.678 64.217,243.794 64.124 C 243.909 64.032,244.866 63.918,245.919 63.871 L 247.833 63.787 247.833 65.393 L 247.833 67.000 246.561 67.000 C 243.673 67.000,243.607 67.096,243.500 71.500 L 243.417 74.917 241.917 74.917 L 240.417 74.917 240.373 69.585 C 240.348 66.652,240.365 64.158,240.409 64.043 C 240.571 63.620,241.242 63.823,241.646 64.418 M327.753 64.226 C 330.083 65.311,330.583 66.568,330.583 71.333 L 330.583 74.917 329.083 74.917 L 327.583 74.917 327.538 71.530 C 327.484 67.491,327.209 66.833,325.576 66.833 C 323.998 66.833,323.667 67.683,323.667 71.734 L 323.667 75.000 322.167 75.000 L 320.667 75.000 320.667 69.500 L 320.667 64.000 321.054 64.000 C 321.267 64.000,321.618 64.188,321.833 64.417 C 322.223 64.832,322.667 64.972,322.667 64.680 C 322.667 64.596,322.892 64.477,323.167 64.417 C 323.442 64.356,323.667 64.243,323.667 64.165 C 323.667 63.696,326.713 63.742,327.753 64.226 M347.980 64.418 C 348.418 65.061,348.535 65.108,348.871 64.772 C 348.996 64.647,349.283 64.487,349.508 64.418 C 349.733 64.349,350.011 64.217,350.127 64.124 C 350.243 64.032,351.195 63.918,352.243 63.872 C 354.466 63.774,354.389 63.703,354.300 65.753 L 354.250 66.917 352.667 67.022 C 349.843 67.209,349.942 67.054,349.833 71.500 L 349.750 74.917 348.250 74.917 L 346.750 74.917 346.703 69.750 C 346.678 66.908,346.698 64.415,346.748 64.208 C 346.891 63.623,347.510 63.728,347.980 64.418 M366.131 65.375 L 366.083 66.917 363.167 67.000 L 360.250 67.083 360.199 67.525 L 360.148 67.967 362.366 68.036 C 363.874 68.082,364.719 68.181,365.007 68.344 C 365.652 68.708,366.667 69.750,366.667 70.049 C 366.667 70.194,366.742 70.360,366.833 70.417 C 367.097 70.579,367.027 72.129,366.730 72.717 C 365.672 74.809,365.157 75.000,360.563 75.000 L 356.987 75.000 357.035 73.458 L 357.083 71.917 360.329 71.871 C 363.592 71.826,364.071 71.738,363.673 71.257 C 363.502 71.052,363.058 71.000,361.463 71.000 C 358.373 71.000,357.157 70.118,357.025 67.780 C 356.853 64.734,358.158 63.883,363.048 63.853 L 366.179 63.833 366.131 65.375 M155.417 69.500 L 155.417 74.917 153.875 74.965 L 152.333 75.013 152.333 69.500 L 152.333 63.987 153.875 64.035 L 155.417 64.083 155.417 69.500 M253.667 67.516 C 253.753 71.073,253.758 71.098,254.530 71.875 C 254.914 72.261,256.132 72.259,256.591 71.871 C 257.396 71.190,257.413 71.110,257.500 67.517 L 257.583 64.083 259.083 64.083 L 260.583 64.083 260.635 68.917 C 260.701 75.139,260.594 75.695,259.003 77.383 C 258.343 78.084,257.929 78.348,256.413 79.030 C 256.228 79.114,255.478 79.160,254.747 79.133 L 253.417 79.083 253.417 77.583 L 253.417 76.083 254.667 75.992 C 256.883 75.831,257.813 75.044,255.672 75.141 C 254.365 75.201,253.162 74.852,252.546 74.236 C 252.420 74.110,252.225 73.949,252.113 73.879 C 251.865 73.723,251.352 72.957,250.964 72.167 C 250.720 71.669,250.677 71.028,250.672 67.785 L 250.667 63.987 252.125 64.035 L 253.583 64.083 253.667 67.516 M129.958 67.315 C 129.288 67.941,129.261 68.007,129.196 69.149 C 129.131 70.301,129.341 70.763,129.583 70.000 C 129.642 69.817,129.746 69.667,129.816 69.667 C 129.887 69.667,130.178 69.310,130.464 68.875 C 130.919 68.183,131.150 67.882,132.003 66.875 C 132.524 66.261,130.658 66.663,129.958 67.315 M296.792 67.315 C 296.121 67.941,296.094 68.007,296.029 69.149 C 295.964 70.301,296.174 70.763,296.417 70.000 C 296.475 69.817,296.580 69.667,296.650 69.667 C 296.720 69.667,297.011 69.310,297.297 68.875 C 297.752 68.183,297.983 67.882,298.837 66.875 C 299.357 66.261,297.491 66.663,296.792 67.315 M309.724 67.009 C 308.128 68.032,308.313 71.145,310.014 71.901 C 313.079 73.262,315.130 68.895,312.338 66.953 C 311.757 66.549,310.397 66.578,309.724 67.009 M337.956 66.930 C 337.118 67.385,336.644 68.372,336.701 69.548 L 336.750 70.578 337.407 69.664 C 337.769 69.161,338.164 68.637,338.286 68.500 C 338.409 68.362,338.773 67.894,339.095 67.458 L 339.682 66.667 339.049 66.673 C 338.701 66.677,338.210 66.792,337.956 66.930 M50.838 73.356 C 51.850 73.925,52.412 75.326,52.050 76.376 C 51.243 78.719,48.219 78.761,47.250 76.443 C 46.361 74.314,48.804 72.213,50.838 73.356 M40.065 76.660 C 41.855 77.340,42.807 79.889,41.914 81.610 C 40.218 84.879,35.492 83.713,35.439 80.013 C 35.404 77.597,37.856 75.820,40.065 76.660 M98.298 82.123 C 99.477 82.877,99.994 84.253,99.458 85.211 C 98.274 87.330,95.993 87.527,94.777 85.615 C 94.206 84.717,94.501 83.082,95.339 82.500 C 95.537 82.362,95.823 82.159,95.974 82.047 C 96.389 81.741,97.772 81.786,98.298 82.123 M59.355 84.236 C 61.483 85.131,61.611 87.969,59.569 88.989 C 58.301 89.623,56.942 89.099,56.208 87.694 C 55.224 85.809,57.402 83.415,59.355 84.236 M105.194 88.292 C 105.225 88.360,105.475 88.540,105.750 88.692 C 109.304 90.646,106.096 96.507,102.425 94.765 C 98.854 93.071,100.028 88.250,104.028 88.185 C 104.639 88.175,105.164 88.223,105.194 88.292 M86.198 88.922 C 88.190 90.405,87.059 93.500,84.525 93.500 C 82.112 93.500,81.231 90.195,83.274 88.806 C 83.907 88.376,85.552 88.441,86.198 88.922 M71.826 89.496 C 73.764 90.485,73.813 93.082,71.911 94.003 C 70.678 94.600,68.827 94.069,68.561 93.042 C 68.508 92.835,68.397 92.667,68.315 92.667 C 68.234 92.667,68.167 92.309,68.167 91.872 C 68.167 89.939,70.159 88.646,71.826 89.496 M52.112 91.595 C 54.724 92.792,54.828 96.609,52.283 97.839 C 51.604 98.167,49.592 98.312,49.472 98.042 C 49.442 97.973,49.148 97.780,48.820 97.614 C 47.740 97.066,46.631 94.184,47.333 93.750 C 47.425 93.693,47.500 93.520,47.500 93.365 C 47.501 92.799,48.793 91.639,49.833 91.269 C 50.211 91.135,51.516 91.321,52.112 91.595 M88.453 98.007 C 91.185 98.582,91.727 102.540,89.290 104.124 C 88.496 104.640,86.024 104.822,85.875 104.375 C 85.837 104.260,85.711 104.167,85.595 104.167 C 84.912 104.167,83.987 102.734,83.887 101.520 C 83.763 100.010,85.209 98.000,86.420 98.000 C 86.636 98.000,86.864 97.918,86.926 97.819 C 86.988 97.718,87.196 97.687,87.394 97.748 C 87.590 97.809,88.066 97.925,88.453 98.007 M69.218 99.088 C 71.880 99.588,72.618 103.868,70.277 105.235 C 69.484 105.699,68.170 106.014,67.818 105.825 C 67.655 105.738,67.378 105.667,67.203 105.667 C 65.429 105.667,64.088 102.329,65.162 100.590 C 65.746 99.647,67.625 98.694,68.446 98.925 C 68.555 98.956,68.902 99.029,69.218 99.088 " stroke="none" fill="#fcfcfc" fill-rule="evenodd"></path><path id="path3" d="M71.368 22.021 C 70.975 22.216,70.683 22.405,70.720 22.443 C 70.758 22.480,71.005 22.402,71.269 22.269 C 71.534 22.135,71.938 21.951,72.167 21.858 C 72.396 21.765,72.471 21.684,72.333 21.678 C 72.196 21.672,71.761 21.826,71.368 22.021 M73.667 21.722 C 73.667 21.766,73.909 21.885,74.205 21.988 C 74.500 22.091,74.669 22.107,74.580 22.023 C 74.390 21.846,73.667 21.607,73.667 21.722 M75.020 22.369 C 75.169 22.490,75.488 22.879,75.729 23.234 C 76.249 24.001,76.318 23.867,75.818 23.059 C 75.627 22.749,75.308 22.418,75.110 22.322 C 74.799 22.172,74.786 22.178,75.020 22.369 M69.732 23.695 C 69.396 24.239,69.586 26.065,70.049 26.747 C 70.563 27.503,70.665 27.391,70.181 26.603 C 69.742 25.889,69.605 25.002,69.815 24.241 C 69.999 23.573,69.962 23.324,69.732 23.695 M76.250 24.999 C 76.250 25.531,76.306 25.932,76.375 25.890 C 76.535 25.792,76.533 24.477,76.372 24.224 C 76.305 24.118,76.250 24.467,76.250 24.999 M91.042 25.015 C 90.291 25.239,90.328 25.250,91.821 25.250 C 93.133 25.250,93.287 25.112,92.167 24.942 C 91.846 24.893,91.340 24.926,91.042 25.015 M89.608 25.834 C 89.047 26.326,88.498 27.248,88.502 27.692 C 88.503 27.816,88.681 27.536,88.897 27.070 C 89.114 26.604,89.545 26.024,89.854 25.780 C 90.164 25.536,90.363 25.336,90.297 25.335 C 90.232 25.334,89.921 25.559,89.608 25.834 M75.921 26.485 C 75.861 26.674,75.574 27.067,75.283 27.358 C 74.916 27.725,74.863 27.829,75.112 27.696 C 75.496 27.490,76.262 26.373,76.118 26.229 C 76.070 26.181,75.981 26.296,75.921 26.485 M94.778 26.794 C 94.831 27.002,94.940 27.213,95.020 27.262 C 95.248 27.403,95.193 27.098,94.925 26.740 C 94.692 26.428,94.687 26.430,94.778 26.794 M54.458 27.284 C 54.665 27.324,55.002 27.324,55.208 27.284 C 55.415 27.245,55.246 27.212,54.833 27.212 C 54.421 27.212,54.252 27.245,54.458 27.284 M52.221 28.253 C 51.825 28.667,51.500 29.097,51.500 29.208 C 51.500 29.320,51.693 29.126,51.930 28.778 C 52.166 28.430,52.597 28.001,52.888 27.824 C 53.179 27.646,53.310 27.501,53.180 27.501 C 53.049 27.500,52.618 27.839,52.221 28.253 M71.083 27.824 C 71.358 27.999,71.808 28.187,72.083 28.240 C 72.469 28.316,72.432 28.280,71.921 28.082 C 71.556 27.940,71.185 27.752,71.096 27.662 C 71.006 27.573,70.855 27.501,70.758 27.503 C 70.662 27.504,70.808 27.649,71.083 27.824 M74.083 28.089 C 73.665 28.291,73.651 28.314,74.000 28.230 C 74.229 28.174,74.488 28.063,74.575 27.981 C 74.791 27.779,74.672 27.805,74.083 28.089 M95.212 28.500 C 95.212 28.912,95.245 29.081,95.284 28.875 C 95.324 28.669,95.324 28.331,95.284 28.125 C 95.245 27.919,95.212 28.087,95.212 28.500 M57.440 28.750 C 57.825 29.408,57.833 29.418,57.833 29.213 C 57.833 29.116,57.679 28.860,57.490 28.643 L 57.147 28.250 57.440 28.750 M88.515 28.833 C 88.502 29.250,89.095 30.395,89.507 30.750 C 89.856 31.050,89.850 31.023,89.448 30.485 C 89.202 30.156,88.894 29.593,88.762 29.235 C 88.631 28.877,88.520 28.696,88.515 28.833 M51.268 29.764 C 51.123 30.140,51.148 31.212,51.306 31.462 C 51.382 31.581,51.436 31.199,51.429 30.587 C 51.415 29.393,51.414 29.384,51.268 29.764 M57.917 30.500 C 57.917 31.032,57.972 31.382,58.039 31.276 C 58.106 31.170,58.162 30.821,58.162 30.500 C 58.162 30.179,58.106 29.830,58.039 29.724 C 57.972 29.618,57.917 29.968,57.917 30.500 M91.537 31.686 C 91.878 31.763,92.314 31.768,92.505 31.698 C 92.740 31.611,92.539 31.565,91.884 31.557 C 90.993 31.546,90.965 31.557,91.537 31.686 M73.213 32.168 C 71.358 32.586,70.568 34.531,71.696 35.899 C 73.616 38.229,77.193 36.130,75.910 33.427 C 75.434 32.423,74.342 31.914,73.213 32.168 M51.667 32.272 C 51.666 32.518,52.938 33.667,53.209 33.666 C 53.323 33.665,53.192 33.517,52.917 33.337 C 52.642 33.157,52.248 32.802,52.042 32.547 C 51.837 32.292,51.668 32.168,51.667 32.272 M75.291 32.901 C 77.123 34.580,75.233 37.319,72.799 36.516 C 71.638 36.133,70.964 34.179,71.728 33.415 C 71.877 33.265,72.000 33.083,72.000 33.009 C 72.000 32.219,74.459 32.139,75.291 32.901 M56.994 32.907 C 56.860 33.039,56.525 33.264,56.250 33.406 C 55.975 33.548,55.865 33.665,56.006 33.666 C 56.238 33.667,57.539 32.689,57.327 32.673 C 57.278 32.670,57.128 32.775,56.994 32.907 M53.719 33.869 C 53.973 34.030,55.191 34.033,55.442 33.872 C 55.547 33.805,55.158 33.749,54.578 33.747 C 53.997 33.745,53.611 33.800,53.719 33.869 M87.242 35.568 C 84.766 36.646,85.753 40.515,88.443 40.273 C 89.310 40.195,90.078 39.660,90.495 38.844 C 91.496 36.880,89.302 34.670,87.242 35.568 M89.602 36.087 C 90.855 37.042,90.515 39.833,89.145 39.833 C 88.985 39.833,88.807 39.908,88.750 40.000 C 88.621 40.209,87.885 40.219,87.758 40.013 C 87.706 39.928,87.439 39.810,87.165 39.750 C 86.891 39.689,86.667 39.537,86.667 39.412 C 86.667 39.286,86.535 39.110,86.375 39.020 C 85.795 38.695,85.972 36.967,86.658 36.259 C 87.412 35.481,88.708 35.405,89.602 36.087 M106.290 36.508 C 105.945 36.567,105.608 36.673,105.540 36.745 C 105.472 36.816,105.589 36.822,105.800 36.757 C 106.011 36.692,106.513 36.639,106.917 36.639 C 107.320 36.639,107.822 36.692,108.033 36.757 C 108.244 36.822,108.363 36.818,108.298 36.750 C 108.096 36.535,106.946 36.397,106.290 36.508 M108.911 37.249 C 109.182 37.471,109.544 37.825,109.714 38.035 C 109.962 38.342,109.991 38.352,109.861 38.083 C 109.683 37.716,108.744 36.830,108.543 36.839 C 108.474 36.843,108.639 37.027,108.911 37.249 M60.250 37.263 C 58.261 38.300,58.334 40.891,60.376 41.744 C 63.124 42.892,65.113 38.677,62.465 37.317 C 61.715 36.933,60.921 36.913,60.250 37.263 M104.573 37.542 L 104.083 38.083 104.666 37.583 C 104.986 37.308,105.280 37.065,105.319 37.042 C 105.357 37.019,105.315 37.000,105.226 37.000 C 105.136 37.000,104.842 37.244,104.573 37.542 M62.314 37.509 C 63.768 38.267,63.827 41.333,62.388 41.333 C 62.266 41.333,62.167 41.408,62.167 41.500 C 62.167 41.592,61.760 41.667,61.262 41.667 C 60.129 41.667,59.167 40.911,59.167 40.022 C 59.167 39.717,59.080 39.499,58.958 39.497 C 58.811 39.496,58.804 39.459,58.937 39.372 C 59.040 39.305,59.176 39.016,59.238 38.729 C 59.518 37.436,61.026 36.838,62.314 37.509 M103.829 38.594 C 103.208 40.228,104.394 42.775,105.917 43.076 C 106.391 43.169,106.396 43.165,106.005 42.996 C 104.298 42.254,103.374 40.231,103.996 38.594 C 104.085 38.359,104.121 38.167,104.075 38.167 C 104.029 38.167,103.919 38.359,103.829 38.594 M110.058 38.771 C 110.314 39.630,110.324 39.986,110.114 40.785 C 109.988 41.263,109.943 41.619,110.013 41.576 C 110.437 41.313,110.531 38.809,110.126 38.558 C 110.033 38.501,110.004 38.590,110.058 38.771 M42.495 40.764 C 42.813 40.902,43.224 41.143,43.409 41.299 C 43.729 41.570,43.733 41.569,43.509 41.281 C 43.243 40.938,42.459 40.497,42.133 40.507 C 42.014 40.510,42.177 40.626,42.495 40.764 M38.753 41.388 C 38.339 41.785,38.000 42.214,38.000 42.342 C 38.000 42.470,38.127 42.389,38.281 42.162 C 38.598 41.698,39.133 41.181,39.602 40.885 C 39.775 40.776,39.824 40.682,39.711 40.676 C 39.598 40.671,39.167 40.991,38.753 41.388 M109.401 42.190 C 109.226 42.386,108.783 42.685,108.417 42.853 C 108.050 43.022,107.847 43.161,107.967 43.163 C 108.313 43.169,109.050 42.734,109.487 42.266 C 109.710 42.028,109.852 41.833,109.805 41.833 C 109.757 41.833,109.575 41.994,109.401 42.190 M44.281 43.210 C 44.412 44.476,44.033 45.466,43.112 46.269 C 42.730 46.602,42.567 46.796,42.750 46.701 C 44.060 46.023,44.998 43.545,44.339 42.503 C 44.237 42.343,44.217 42.589,44.281 43.210 M37.682 43.833 C 37.677 44.246,37.738 44.687,37.818 44.814 C 37.908 44.956,37.934 44.732,37.885 44.231 C 37.775 43.102,37.695 42.945,37.682 43.833 M98.750 44.007 C 98.513 44.104,98.669 44.147,99.292 44.155 C 99.773 44.161,100.167 44.224,100.167 44.294 C 100.167 44.364,100.331 44.495,100.532 44.585 C 102.616 45.525,101.320 48.932,98.997 48.621 C 97.114 48.368,96.300 44.993,98.014 44.545 C 98.190 44.499,98.333 44.391,98.333 44.304 C 98.333 43.972,97.358 44.745,97.102 45.280 C 95.709 48.202,100.035 50.372,101.505 47.490 C 102.423 45.690,100.519 43.282,98.750 44.007 M39.943 47.058 C 40.259 47.235,41.749 47.231,42.069 47.051 C 42.208 46.974,41.753 46.917,41.001 46.917 C 40.201 46.917,39.790 46.971,39.943 47.058 M50.661 46.970 C 48.402 47.971,48.573 50.971,50.928 51.668 C 52.281 52.067,54.000 50.750,54.000 49.314 C 54.000 47.559,52.193 46.291,50.661 46.970 M52.565 47.232 C 53.150 47.476,53.833 48.593,53.833 49.305 C 53.833 49.942,52.839 51.333,52.383 51.333 C 52.262 51.333,52.018 51.423,51.841 51.534 C 51.602 51.683,51.423 51.687,51.135 51.549 C 50.923 51.447,50.627 51.325,50.476 51.277 C 49.653 51.018,48.820 48.588,49.478 48.368 C 49.582 48.334,49.667 48.212,49.667 48.098 C 49.667 47.276,51.417 46.752,52.565 47.232 M34.391 58.294 C 34.285 58.362,34.709 58.417,35.333 58.417 C 35.957 58.417,36.382 58.362,36.276 58.294 C 36.170 58.227,35.746 58.172,35.333 58.172 C 34.921 58.172,34.497 58.227,34.391 58.294 M37.537 59.211 C 37.929 59.612,38.282 59.914,38.321 59.884 C 38.420 59.809,37.483 58.840,37.121 58.644 C 36.958 58.556,37.145 58.811,37.537 59.211 M45.709 59.406 C 43.824 60.449,43.703 62.705,45.471 63.870 C 47.280 65.064,49.839 62.860,48.999 60.831 C 48.436 59.471,46.841 58.780,45.709 59.406 M47.516 59.608 C 48.303 59.988,48.667 60.331,48.667 60.692 C 48.667 60.862,48.742 61.000,48.833 61.000 C 48.925 61.000,49.000 61.300,49.000 61.667 C 49.000 62.033,48.931 62.333,48.847 62.333 C 48.762 62.333,48.647 62.543,48.591 62.798 C 48.287 64.181,45.819 64.298,44.841 62.975 C 43.543 61.219,45.570 58.667,47.516 59.608 M38.489 60.950 C 38.547 61.298,38.548 61.906,38.489 62.300 C 38.415 62.806,38.436 62.964,38.561 62.839 C 38.796 62.604,38.800 60.735,38.567 60.500 C 38.433 60.366,38.412 60.489,38.489 60.950 M32.042 61.583 C 32.044 61.950,32.078 62.080,32.118 61.873 C 32.158 61.666,32.156 61.366,32.115 61.206 C 32.073 61.047,32.040 61.217,32.042 61.583 M32.167 62.792 C 32.167 62.871,32.275 63.082,32.408 63.260 C 32.642 63.572,32.647 63.570,32.555 63.206 C 32.460 62.830,32.167 62.517,32.167 62.792 M37.546 63.947 C 37.158 64.343,36.899 64.667,36.970 64.667 C 37.137 64.667,38.418 63.357,38.323 63.284 C 38.283 63.253,37.933 63.551,37.546 63.947 M32.961 64.013 C 33.828 65.001,35.909 65.491,36.543 64.857 C 36.620 64.780,36.323 64.774,35.883 64.845 C 34.719 65.031,34.095 64.832,33.000 63.928 L 32.583 63.583 32.961 64.013 M48.667 73.284 C 46.712 73.995,46.834 77.378,48.833 77.907 C 49.234 78.013,49.237 78.007,48.926 77.759 C 48.749 77.616,48.537 77.500,48.456 77.500 C 48.183 77.500,47.825 77.017,47.578 76.318 C 46.930 74.482,48.525 72.876,50.386 73.490 C 52.216 74.094,52.365 77.151,50.588 77.597 C 50.356 77.655,50.167 77.770,50.167 77.851 C 50.167 78.076,50.363 78.032,50.949 77.674 C 53.427 76.163,51.411 72.285,48.667 73.284 M37.935 76.647 C 37.748 76.720,38.065 76.771,38.713 76.771 C 39.988 76.771,40.949 77.279,41.528 78.260 C 41.913 78.913,42.006 78.977,41.883 78.504 C 41.571 77.313,39.146 76.172,37.935 76.647 M36.182 77.848 C 35.974 78.130,35.835 78.390,35.872 78.428 C 35.910 78.465,36.110 78.266,36.318 77.985 C 36.526 77.704,36.665 77.443,36.628 77.406 C 36.590 77.368,36.390 77.567,36.182 77.848 M35.575 78.846 C 35.424 79.091,35.462 81.029,35.622 81.188 C 35.692 81.259,35.750 80.720,35.750 79.992 C 35.750 78.585,35.747 78.568,35.575 78.846 M42.050 80.167 C 42.050 80.671,42.081 80.877,42.119 80.625 C 42.158 80.373,42.158 79.960,42.119 79.708 C 42.081 79.456,42.050 79.662,42.050 80.167 M41.690 81.606 C 41.490 82.053,41.494 82.066,41.757 81.808 C 41.912 81.657,42.008 81.442,41.971 81.331 C 41.934 81.220,41.808 81.344,41.690 81.606 M36.130 81.979 C 36.311 82.288,36.712 82.691,37.021 82.874 L 37.583 83.208 37.054 82.768 C 36.762 82.526,36.361 82.123,36.163 81.872 L 35.801 81.417 36.130 81.979 M96.083 82.147 C 95.717 82.315,95.294 82.595,95.145 82.768 C 94.803 83.164,94.551 83.925,94.815 83.761 C 94.917 83.698,95.000 83.552,95.000 83.436 C 95.000 83.155,95.615 82.613,96.317 82.274 C 98.449 81.245,100.325 84.500,98.485 86.036 C 97.403 86.939,95.470 86.609,95.031 85.446 C 94.925 85.167,94.795 84.983,94.741 85.037 C 94.551 85.226,95.187 86.184,95.716 86.507 C 96.393 86.919,97.594 86.934,98.196 86.537 C 100.830 84.800,98.926 80.842,96.083 82.147 M37.942 83.375 C 37.985 83.444,38.423 83.500,38.917 83.500 C 39.410 83.500,39.848 83.444,39.891 83.375 C 39.933 83.306,39.495 83.250,38.917 83.250 C 38.338 83.250,37.900 83.306,37.942 83.375 M57.369 84.511 C 55.456 85.483,55.659 88.092,57.716 88.968 C 59.218 89.608,61.001 88.346,60.999 86.647 C 60.996 84.812,59.041 83.662,57.369 84.511 M60.082 85.070 C 60.887 85.924,60.971 86.752,60.374 87.940 C 59.771 89.139,57.097 89.097,56.666 87.883 C 56.574 87.627,56.425 87.286,56.333 87.127 C 56.039 86.616,56.348 85.611,56.992 84.984 C 57.743 84.251,59.352 84.297,60.082 85.070 M103.057 88.295 C 102.950 88.363,103.374 88.418,103.998 88.417 C 104.623 88.417,105.047 88.362,104.942 88.294 C 104.693 88.135,103.307 88.136,103.057 88.295 M83.548 88.762 C 81.684 89.714,81.678 92.244,83.536 93.144 C 85.567 94.127,87.695 92.273,86.990 90.135 C 86.555 88.817,84.806 88.120,83.548 88.762 M101.871 88.855 C 101.370 89.176,100.491 90.406,100.507 90.765 C 100.510 90.848,100.632 90.692,100.777 90.417 C 101.129 89.748,101.643 89.189,102.250 88.812 C 102.525 88.641,102.675 88.502,102.583 88.503 C 102.492 88.505,102.171 88.663,101.871 88.855 M106.013 89.187 C 106.418 89.588,106.782 89.897,106.821 89.873 C 106.928 89.808,105.964 88.830,105.596 88.631 C 105.420 88.535,105.607 88.786,106.013 89.187 M86.209 89.377 C 87.311 90.504,86.867 93.000,85.564 93.000 C 85.435 93.000,85.189 93.087,85.019 93.193 C 84.092 93.773,82.452 92.373,82.433 90.985 C 82.406 88.975,84.814 87.949,86.209 89.377 M69.917 89.452 C 69.133 89.641,68.140 91.043,68.186 91.895 C 68.204 92.230,68.210 92.231,68.279 91.917 C 68.625 90.346,69.297 89.750,70.718 89.750 C 72.578 89.750,73.368 90.842,72.815 92.647 C 72.306 94.312,69.102 94.425,68.741 92.792 C 68.686 92.540,68.571 92.333,68.487 92.333 C 68.069 92.333,68.720 93.403,69.391 93.817 C 70.547 94.532,72.341 94.112,72.921 92.992 C 73.929 91.043,72.127 88.920,69.917 89.452 M106.833 90.176 C 106.833 90.218,106.905 90.502,106.992 90.807 C 107.086 91.132,107.093 91.671,107.011 92.112 C 106.919 92.608,106.927 92.806,107.036 92.697 C 107.269 92.465,107.261 90.528,107.027 90.294 C 106.920 90.187,106.833 90.134,106.833 90.176 M50.083 91.304 C 49.081 91.414,49.381 91.583,50.575 91.583 C 51.249 91.583,51.771 91.535,51.735 91.477 C 51.648 91.335,50.707 91.237,50.083 91.304 M48.324 92.291 L 47.750 92.916 48.333 92.418 C 48.654 92.144,48.988 91.862,49.075 91.793 C 49.173 91.714,49.170 91.667,49.066 91.667 C 48.974 91.667,48.640 91.948,48.324 92.291 M52.017 91.708 C 52.057 91.731,52.444 92.084,52.878 92.493 C 53.312 92.902,53.667 93.183,53.667 93.118 C 53.667 92.920,52.347 91.667,52.139 91.667 C 52.032 91.667,51.977 91.685,52.017 91.708 M47.489 93.445 C 47.396 93.690,47.342 94.003,47.368 94.140 C 47.395 94.277,47.500 94.077,47.602 93.695 C 47.810 92.913,47.746 92.770,47.489 93.445 M53.740 93.583 C 53.988 94.262,54.028 94.954,53.856 95.579 C 53.717 96.083,53.722 96.178,53.881 96.019 C 54.170 95.730,54.146 93.742,53.850 93.467 C 53.655 93.285,53.637 93.304,53.740 93.583 M105.833 94.034 C 105.175 94.637,105.151 94.682,105.632 94.404 C 105.934 94.229,106.292 93.917,106.428 93.710 C 106.758 93.206,106.707 93.233,105.833 94.034 M102.892 94.872 C 103.128 95.024,104.314 95.017,104.704 94.863 C 104.863 94.800,104.476 94.749,103.846 94.749 C 103.216 94.750,102.786 94.805,102.892 94.872 M52.895 97.106 C 52.516 97.506,52.267 97.833,52.341 97.833 C 52.553 97.833,53.667 96.732,53.667 96.522 C 53.667 96.281,53.701 96.255,52.895 97.106 M48.052 96.835 C 48.199 97.065,48.566 97.389,48.868 97.555 C 49.225 97.752,49.300 97.766,49.083 97.597 C 48.900 97.454,48.533 97.130,48.268 96.877 C 47.800 96.430,47.793 96.429,48.052 96.835 M49.694 98.021 C 49.817 98.098,50.292 98.157,50.750 98.151 C 51.748 98.138,51.582 98.054,50.361 97.953 C 49.841 97.910,49.564 97.938,49.694 98.021 M85.829 98.275 C 85.250 98.662,84.333 99.538,84.333 99.705 C 84.333 99.782,84.559 99.588,84.835 99.273 C 85.111 98.959,85.655 98.548,86.043 98.359 C 86.432 98.171,86.635 98.013,86.495 98.008 C 86.355 98.004,86.055 98.124,85.829 98.275 M88.662 98.249 C 88.980 98.395,89.392 98.640,89.578 98.792 C 89.764 98.945,89.729 98.871,89.500 98.629 C 89.271 98.386,88.858 98.141,88.583 98.085 C 88.099 97.987,88.101 97.992,88.662 98.249 M68.417 99.156 C 68.875 99.235,69.400 99.355,69.583 99.424 C 69.838 99.520,69.873 99.502,69.732 99.348 C 69.631 99.238,69.106 99.117,68.565 99.081 L 67.583 99.014 68.417 99.156 M66.208 99.656 C 65.837 99.925,65.475 100.239,65.404 100.354 C 65.333 100.469,65.577 100.320,65.946 100.024 C 66.315 99.727,66.834 99.420,67.100 99.340 C 67.472 99.229,67.502 99.192,67.233 99.181 C 67.041 99.173,66.580 99.387,66.208 99.656 M70.000 99.552 C 70.000 99.581,70.244 99.825,70.542 100.094 L 71.083 100.583 70.594 100.042 C 70.138 99.537,70.000 99.423,70.000 99.552 M90.583 101.334 C 90.583 101.958,90.638 102.382,90.706 102.276 C 90.867 102.022,90.869 100.375,90.708 100.276 C 90.640 100.234,90.583 100.710,90.583 101.334 M83.907 100.908 C 83.848 101.224,83.870 101.692,83.955 101.949 C 84.085 102.339,84.111 102.243,84.111 101.375 C 84.111 100.193,84.062 100.082,83.907 100.908 M71.542 102.417 C 71.544 102.783,71.578 102.914,71.618 102.706 C 71.658 102.499,71.656 102.199,71.615 102.040 C 71.573 101.880,71.540 102.050,71.542 102.417 M89.667 103.459 C 88.936 104.213,89.024 104.302,89.807 103.600 C 90.143 103.298,90.604 102.650,90.464 102.675 C 90.438 102.680,90.079 103.032,89.667 103.459 M84.337 102.941 C 84.333 103.140,85.423 104.169,85.631 104.163 C 85.696 104.161,85.571 104.021,85.352 103.853 C 85.133 103.685,84.815 103.367,84.647 103.148 C 84.479 102.929,84.339 102.836,84.337 102.941 M64.834 103.180 C 64.835 103.395,65.650 104.861,65.661 104.667 C 65.663 104.621,65.478 104.214,65.249 103.763 C 65.021 103.312,64.834 103.050,64.834 103.180 M71.190 103.773 C 70.990 104.220,70.994 104.232,71.257 103.975 C 71.412 103.823,71.508 103.609,71.471 103.497 C 71.434 103.386,71.308 103.510,71.190 103.773 M85.992 104.392 C 86.099 104.499,86.689 104.583,87.333 104.583 C 87.978 104.583,88.568 104.499,88.675 104.392 C 88.819 104.247,88.678 104.240,88.100 104.363 C 87.599 104.470,87.068 104.470,86.567 104.363 C 85.989 104.240,85.847 104.247,85.992 104.392 M70.500 104.780 C 70.131 105.171,70.124 105.199,70.439 105.032 C 70.634 104.928,70.838 104.728,70.892 104.588 C 71.022 104.248,70.987 104.265,70.500 104.780 M66.417 105.254 C 66.783 105.480,67.233 105.660,67.417 105.654 C 67.616 105.648,67.484 105.546,67.087 105.401 C 66.723 105.267,66.352 105.085,66.262 104.996 C 66.173 104.906,66.021 104.836,65.925 104.839 C 65.829 104.841,66.050 105.029,66.417 105.254 M69.333 105.427 C 69.012 105.549,68.531 105.652,68.264 105.657 C 67.997 105.662,67.824 105.713,67.881 105.770 C 68.046 105.935,69.425 105.676,69.769 105.415 C 70.139 105.135,70.103 105.136,69.333 105.427 " stroke="none" fill="#a4ccd4" fill-rule="evenodd"></path><path id="path4" d="M95.250 28.416 C 95.250 28.902,95.306 29.266,95.375 29.224 C 95.535 29.125,95.533 27.977,95.372 27.724 C 95.305 27.618,95.250 27.929,95.250 28.416 M89.333 30.736 C 89.713 31.156,90.333 31.599,90.333 31.450 C 90.333 31.417,90.015 31.138,89.625 30.832 C 89.003 30.343,88.968 30.331,89.333 30.736 M90.833 31.664 C 90.971 31.754,91.265 31.829,91.486 31.831 C 92.021 31.834,91.885 31.739,91.167 31.608 C 90.756 31.532,90.657 31.549,90.833 31.664 M73.417 31.988 C 73.178 32.082,73.297 32.119,73.833 32.119 C 74.369 32.119,74.488 32.082,74.250 31.988 C 74.067 31.916,73.879 31.857,73.833 31.857 C 73.787 31.857,73.600 31.916,73.417 31.988 M71.333 35.608 C 71.333 35.698,71.577 35.991,71.875 36.260 L 72.417 36.750 71.917 36.167 C 71.642 35.847,71.398 35.553,71.375 35.515 C 71.352 35.476,71.333 35.518,71.333 35.608 M73.134 37.026 C 73.198 37.086,73.550 37.074,73.917 36.999 L 74.583 36.862 73.800 36.889 C 73.369 36.904,73.069 36.966,73.134 37.026 M58.778 38.611 C 58.717 38.672,58.671 38.878,58.677 39.069 C 58.687 39.389,58.701 39.385,58.847 39.017 C 59.011 38.609,58.977 38.412,58.778 38.611 M63.705 39.333 C 63.705 39.654,63.740 39.785,63.782 39.625 C 63.823 39.465,63.823 39.202,63.782 39.042 C 63.740 38.881,63.705 39.012,63.705 39.333 M103.548 39.750 C 103.549 40.208,103.581 40.376,103.620 40.123 C 103.658 39.869,103.657 39.494,103.617 39.289 C 103.578 39.084,103.546 39.292,103.548 39.750 M98.240 44.093 C 97.922 44.348,97.922 44.349,98.250 44.198 C 98.433 44.114,98.696 44.003,98.833 43.952 C 99.049 43.872,99.048 43.858,98.824 43.846 C 98.681 43.839,98.418 43.950,98.240 44.093 M43.406 46.208 L 42.917 46.750 43.458 46.260 C 43.963 45.804,44.077 45.667,43.948 45.667 C 43.919 45.667,43.675 45.910,43.406 46.208 M50.686 46.818 C 50.544 46.908,50.768 46.934,51.269 46.885 C 52.398 46.775,52.555 46.695,51.667 46.682 C 51.254 46.677,50.813 46.738,50.686 46.818 M97.131 47.752 C 97.225 47.936,97.478 48.236,97.693 48.417 C 98.070 48.736,98.069 48.730,97.669 48.249 C 97.005 47.449,96.950 47.398,97.131 47.752 M152.422 59.756 C 150.625 61.553,153.291 64.252,155.149 62.516 C 155.452 62.234,155.664 61.870,155.660 61.641 C 155.654 61.290,155.630 61.304,155.427 61.770 C 154.673 63.504,152.000 62.992,152.000 61.114 C 152.000 59.190,154.660 58.633,155.427 60.396 C 155.602 60.798,155.655 60.838,155.660 60.573 C 155.685 59.243,153.489 58.688,152.422 59.756 M286.743 59.875 C 286.699 59.990,286.683 63.421,286.707 67.500 L 286.750 74.917 288.250 74.917 L 289.750 74.917 289.793 67.292 L 289.837 59.667 288.330 59.667 C 287.278 59.667,286.799 59.730,286.743 59.875 M289.667 67.333 L 289.667 74.833 288.250 74.833 L 286.833 74.833 286.833 67.333 L 286.833 59.833 288.250 59.833 L 289.667 59.833 289.667 67.333 M276.417 60.511 C 275.132 61.044,275.143 61.202,276.432 60.747 C 278.494 60.019,281.184 60.275,282.873 61.359 C 283.833 61.975,283.828 61.892,282.969 63.240 C 282.302 64.286,282.257 64.322,281.928 64.078 C 280.210 62.803,277.992 62.714,276.277 63.850 C 275.580 64.311,274.526 65.582,274.697 65.753 C 274.741 65.797,274.959 65.555,275.180 65.215 C 276.514 63.168,279.543 62.601,281.515 64.030 C 281.872 64.289,282.221 64.500,282.291 64.500 C 282.407 64.500,283.322 63.152,283.478 62.750 C 283.514 62.658,283.650 62.461,283.780 62.311 C 284.018 62.037,282.920 60.835,282.428 60.832 C 282.330 60.832,282.025 60.708,281.750 60.557 C 280.912 60.098,277.483 60.068,276.417 60.511 M113.333 67.663 L 113.333 75.005 118.542 74.961 L 123.750 74.917 123.800 73.753 C 123.828 73.114,123.808 72.420,123.755 72.212 L 123.660 71.833 120.082 71.833 L 116.504 71.833 116.461 66.125 L 116.417 60.417 114.875 60.369 L 113.333 60.321 113.333 67.663 M167.040 67.625 L 167.083 74.917 172.083 74.917 L 177.083 74.917 177.131 73.375 L 177.179 71.833 173.590 71.833 L 170.000 71.833 170.000 70.504 L 170.000 69.176 172.458 69.129 L 174.917 69.083 174.966 67.776 C 175.033 65.964,175.088 66.000,172.313 66.000 L 170.000 66.000 170.000 64.750 L 170.000 63.500 173.583 63.500 L 177.167 63.500 177.167 61.917 L 177.167 60.333 172.082 60.333 L 166.996 60.333 167.040 67.625 M197.784 60.439 C 197.618 60.604,197.660 61.687,197.848 62.083 C 197.958 62.317,197.979 62.129,197.918 61.458 L 197.830 60.500 199.265 60.500 L 200.700 60.500 200.609 62.458 C 200.543 63.890,200.558 64.170,200.665 63.500 C 200.745 62.996,200.829 62.096,200.851 61.500 L 200.893 60.417 199.397 60.369 C 198.574 60.343,197.848 60.374,197.784 60.439 M228.250 60.500 C 230.356 60.572,231.493 60.683,232.066 60.875 C 232.515 61.026,232.815 61.089,232.733 61.015 C 232.192 60.531,230.773 60.334,228.052 60.366 L 225.250 60.399 228.250 60.500 M116.206 66.292 L 116.250 72.083 119.958 72.128 L 123.667 72.173 123.667 73.503 L 123.667 74.833 118.583 74.833 L 113.500 74.833 113.500 67.667 L 113.500 60.500 114.831 60.500 L 116.162 60.500 116.206 66.292 M177.000 61.833 L 177.000 63.167 173.625 63.169 C 169.573 63.172,169.806 63.068,169.868 64.848 L 169.917 66.250 172.292 66.296 L 174.667 66.342 174.667 67.671 L 174.667 69.000 172.244 69.000 L 169.820 69.000 169.869 70.458 L 169.917 71.917 173.458 71.962 L 177.000 72.007 177.000 73.337 L 177.000 74.667 172.083 74.667 L 167.167 74.667 167.167 67.583 L 167.167 60.500 172.083 60.500 L 177.000 60.500 177.000 61.833 M31.944 60.944 C 31.795 61.094,31.807 62.035,31.962 62.277 C 32.030 62.384,32.085 62.103,32.084 61.653 C 32.084 61.203,32.077 60.834,32.069 60.834 C 32.062 60.834,32.006 60.883,31.944 60.944 M233.238 61.420 C 233.414 61.554,233.600 61.622,233.650 61.573 C 233.754 61.468,233.331 61.170,233.083 61.175 C 232.992 61.176,233.061 61.287,233.238 61.420 M274.221 61.708 C 273.866 62.006,273.406 62.422,273.198 62.632 C 272.691 63.144,271.664 65.031,271.676 65.431 C 271.681 65.619,271.801 65.472,271.968 65.075 C 272.632 63.488,273.533 62.354,274.835 61.467 C 275.063 61.311,275.163 61.180,275.057 61.175 C 274.952 61.171,274.575 61.410,274.221 61.708 M234.795 62.641 C 236.391 64.262,236.750 65.174,236.750 67.609 C 236.750 69.720,236.902 69.998,237.092 68.231 C 237.324 66.060,236.320 63.665,234.500 62.047 C 233.669 61.309,233.858 61.690,234.795 62.641 M198.000 64.046 C 198.000 64.560,198.076 65.027,198.169 65.085 C 198.282 65.154,198.302 64.861,198.230 64.220 C 198.087 62.951,198.000 62.885,198.000 64.046 M228.292 63.259 C 228.223 63.331,228.167 65.326,228.167 67.694 L 228.167 72.000 229.292 71.988 C 229.910 71.982,230.567 71.910,230.750 71.829 C 230.956 71.739,230.557 71.720,229.708 71.782 L 228.333 71.881 228.333 67.691 L 228.333 63.500 229.590 63.500 C 234.126 63.500,235.701 69.768,231.560 71.342 C 231.318 71.434,231.158 71.547,231.204 71.593 C 231.381 71.770,232.183 71.317,232.819 70.681 C 235.042 68.458,234.381 64.872,231.522 63.638 C 230.720 63.292,228.510 63.033,228.292 63.259 M129.785 63.767 C 128.188 64.345,126.682 65.836,126.418 67.101 C 126.322 67.558,126.330 67.554,126.575 67.022 C 127.575 64.851,129.297 63.750,131.693 63.750 C 132.486 63.750,133.049 63.695,132.943 63.628 C 132.626 63.426,130.464 63.522,129.785 63.767 M296.618 63.767 C 292.548 65.239,291.446 70.695,294.616 73.683 C 295.057 74.097,295.567 74.487,295.750 74.548 C 295.996 74.630,295.974 74.586,295.667 74.379 C 290.868 71.148,292.858 63.750,298.526 63.750 C 299.319 63.750,299.882 63.695,299.776 63.628 C 299.459 63.426,297.297 63.522,296.618 63.767 M309.400 63.749 C 307.886 64.227,306.193 65.845,305.912 67.083 C 305.830 67.443,305.921 67.345,306.235 66.734 C 307.784 63.718,311.492 62.780,314.074 64.752 C 315.000 65.459,314.900 65.459,315.522 64.750 C 316.653 63.462,316.667 63.520,316.667 69.500 C 316.667 75.474,316.618 75.677,315.552 74.170 C 315.005 73.396,314.991 73.392,314.477 73.851 L 314.083 74.203 314.515 73.949 C 314.915 73.713,314.963 73.719,315.181 74.029 C 315.715 74.790,315.978 75.000,316.395 75.000 L 316.833 75.000 316.833 69.500 L 316.833 64.000 316.404 64.000 C 316.149 64.000,315.771 64.203,315.474 64.500 C 314.864 65.111,314.885 65.110,314.075 64.524 C 312.756 63.570,310.927 63.267,309.400 63.749 M337.891 63.628 C 337.785 63.695,338.359 63.750,339.167 63.750 C 339.974 63.750,340.548 63.695,340.442 63.628 C 340.337 63.560,339.762 63.505,339.167 63.505 C 338.571 63.505,337.997 63.560,337.891 63.628 M37.573 64.208 L 37.083 64.750 37.625 64.260 C 37.923 63.991,38.167 63.748,38.167 63.719 C 38.167 63.590,38.029 63.703,37.573 64.208 M134.083 64.276 C 135.015 64.753,136.000 65.615,136.000 65.954 C 136.000 66.076,134.912 67.486,133.583 69.086 C 130.925 72.287,130.893 72.345,131.792 72.307 L 132.417 72.280 131.864 72.212 L 131.312 72.144 131.933 71.364 C 132.275 70.934,132.636 70.508,132.736 70.417 C 132.835 70.325,133.275 69.800,133.714 69.250 C 134.152 68.700,134.642 68.100,134.803 67.917 C 135.174 67.493,136.074 66.313,136.228 66.048 C 136.470 65.631,134.185 63.813,133.453 63.841 C 133.341 63.845,133.625 64.041,134.083 64.276 M141.773 64.233 C 141.327 64.456,140.886 64.714,140.793 64.807 C 140.679 64.921,140.491 64.817,140.214 64.488 C 139.933 64.154,139.663 64.007,139.360 64.023 L 138.917 64.045 139.333 64.120 C 139.563 64.161,139.945 64.419,140.182 64.693 L 140.615 65.192 141.247 64.763 C 142.348 64.016,144.482 63.776,145.750 64.256 C 146.030 64.362,146.049 64.345,145.867 64.150 C 145.450 63.701,142.726 63.756,141.773 64.233 M182.683 64.248 L 181.949 64.677 181.574 64.325 C 181.353 64.117,181.038 63.995,180.808 64.028 L 180.417 64.083 180.417 69.500 L 180.417 74.917 181.917 74.917 L 183.417 74.917 183.500 71.139 C 183.546 69.061,183.621 67.327,183.667 67.286 C 184.271 66.748,184.914 66.732,185.424 67.242 L 185.833 67.652 185.833 71.326 L 185.833 75.000 187.375 74.966 L 188.917 74.931 187.458 74.876 L 186.000 74.820 186.000 71.319 C 186.000 67.428,185.898 66.947,185.032 66.757 C 183.460 66.412,183.167 67.143,183.167 71.408 L 183.167 74.833 181.833 74.833 L 180.500 74.833 180.500 69.500 C 180.500 63.709,180.534 63.524,181.417 64.500 C 181.740 64.857,182.247 64.940,182.418 64.664 C 182.990 63.739,185.727 63.794,186.868 64.753 L 187.356 65.164 187.999 64.647 C 188.741 64.051,190.259 63.826,191.402 64.141 C 191.914 64.283,192.011 64.278,191.852 64.119 C 191.406 63.673,188.631 63.860,187.945 64.383 L 187.333 64.850 186.722 64.383 C 185.814 63.691,183.755 63.622,182.683 64.248 M206.924 63.955 C 206.249 64.126,204.833 65.219,204.833 65.568 C 204.833 65.663,205.047 65.507,205.308 65.221 C 206.252 64.187,206.597 64.102,210.125 64.030 L 213.333 63.965 213.333 65.399 L 213.333 66.833 210.427 66.833 C 208.828 66.833,207.485 66.890,207.442 66.958 C 207.362 67.087,212.918 67.047,213.292 66.917 C 213.438 66.866,213.500 66.393,213.500 65.339 L 213.500 63.833 210.375 63.853 C 208.656 63.863,207.103 63.909,206.924 63.955 M240.409 64.043 C 240.365 64.158,240.348 66.652,240.373 69.585 L 240.417 74.917 241.917 74.917 L 243.417 74.917 243.500 71.483 C 243.563 68.892,243.640 67.982,243.815 67.771 C 243.943 67.618,244.009 67.454,243.963 67.407 C 243.511 66.955,243.248 68.366,243.193 71.542 L 243.137 74.833 241.816 74.833 L 240.495 74.833 240.539 69.461 C 240.589 63.455,240.623 63.300,241.623 64.659 L 242.120 65.335 242.544 65.001 C 242.778 64.817,243.047 64.667,243.141 64.667 C 243.236 64.667,243.365 64.584,243.428 64.482 C 243.584 64.229,242.838 64.472,242.538 64.772 C 242.202 65.108,242.084 65.061,241.646 64.418 C 241.242 63.823,240.571 63.620,240.409 64.043 M244.417 63.954 C 244.142 63.994,243.848 64.092,243.764 64.173 C 243.676 64.260,243.884 64.272,244.264 64.202 C 244.623 64.137,245.573 64.083,246.375 64.083 C 247.177 64.083,247.833 64.027,247.833 63.958 C 247.833 63.830,245.311 63.827,244.417 63.954 M300.917 64.276 C 301.848 64.753,302.833 65.615,302.833 65.954 C 302.833 66.076,301.746 67.486,300.417 69.086 C 297.758 72.287,297.726 72.345,298.625 72.307 L 299.250 72.280 298.698 72.212 L 298.145 72.144 298.767 71.364 C 299.109 70.934,299.471 70.508,299.571 70.417 C 299.672 70.325,300.165 69.725,300.667 69.083 C 301.168 68.442,301.661 67.842,301.760 67.750 C 301.959 67.568,302.874 66.371,303.061 66.048 C 303.303 65.631,301.018 63.813,300.287 63.841 C 300.175 63.845,300.458 64.041,300.917 64.276 M324.042 63.951 C 323.835 63.991,323.667 64.087,323.667 64.165 C 323.667 64.243,323.948 64.229,324.292 64.134 C 326.665 63.478,329.361 64.826,330.095 67.034 C 330.416 68.001,330.602 67.999,330.342 67.032 C 329.739 64.794,326.893 63.402,324.042 63.951 M336.527 64.115 C 333.566 65.574,332.587 69.906,334.568 72.790 C 335.109 73.579,336.354 74.667,336.715 74.667 C 336.818 74.667,336.569 74.434,336.160 74.149 C 332.627 71.687,332.974 66.102,336.775 64.240 C 337.220 64.022,337.471 63.843,337.333 63.842 C 337.196 63.842,336.833 63.964,336.527 64.115 M341.601 64.242 C 342.395 64.641,343.668 65.703,343.666 65.966 C 343.665 66.031,342.545 67.433,341.176 69.083 C 338.659 72.118,338.506 72.413,339.520 72.289 L 340.083 72.220 339.454 72.193 L 338.825 72.167 339.763 71.042 C 340.279 70.423,340.953 69.617,341.260 69.250 C 342.997 67.178,343.833 66.121,343.833 65.998 C 343.833 65.477,342.108 64.100,341.222 63.914 C 340.908 63.849,341.035 63.959,341.601 64.242 M346.748 64.208 C 346.698 64.415,346.678 66.908,346.703 69.750 L 346.750 74.917 348.250 74.917 L 349.750 74.917 349.833 71.483 C 349.896 68.892,349.974 67.982,350.149 67.771 C 350.276 67.618,350.338 67.449,350.286 67.397 C 349.884 66.995,349.667 68.458,349.667 71.575 L 349.667 74.833 348.248 74.833 L 346.829 74.833 346.873 69.461 C 346.922 63.455,346.957 63.300,347.956 64.659 L 348.453 65.335 348.878 65.001 C 349.111 64.817,349.380 64.667,349.475 64.667 C 349.570 64.667,349.698 64.584,349.761 64.482 C 349.918 64.229,349.171 64.472,348.871 64.772 C 348.535 65.108,348.418 65.061,347.980 64.418 C 347.510 63.728,346.891 63.623,346.748 64.208 M350.750 63.954 C 350.475 63.994,350.181 64.092,350.098 64.173 C 350.009 64.260,350.218 64.272,350.598 64.202 C 350.956 64.137,351.887 64.083,352.667 64.083 L 354.083 64.083 354.132 65.458 L 354.180 66.833 352.622 66.833 C 351.449 66.833,350.984 66.898,350.740 67.097 C 350.421 67.357,350.421 67.359,350.750 67.236 C 350.933 67.167,351.796 67.067,352.667 67.014 L 354.250 66.917 354.300 65.753 C 354.387 63.749,353.905 63.505,350.750 63.954 M359.590 63.955 C 358.906 64.129,357.494 65.225,357.506 65.573 C 357.509 65.670,357.678 65.557,357.881 65.320 C 358.835 64.208,359.287 64.089,362.792 64.024 L 366.000 63.965 366.000 65.395 L 366.000 66.826 363.042 66.871 L 360.083 66.917 360.083 67.500 L 360.083 68.083 362.278 68.184 C 364.095 68.267,364.576 68.345,365.070 68.637 C 365.398 68.830,365.667 68.922,365.667 68.840 C 365.667 68.382,364.532 68.106,362.366 68.037 L 360.148 67.967 360.199 67.525 L 360.250 67.083 363.167 67.000 L 366.083 66.917 366.131 65.375 L 366.179 63.833 363.048 63.853 C 361.326 63.863,359.770 63.909,359.590 63.955 M152.333 69.500 L 152.333 75.013 153.875 74.965 L 155.417 74.917 155.417 69.500 L 155.417 64.083 153.875 64.035 L 152.333 63.987 152.333 69.500 M250.672 67.785 C 250.677 71.028,250.720 71.669,250.964 72.167 C 251.330 72.914,251.860 73.719,252.079 73.860 C 252.173 73.921,252.430 74.127,252.651 74.319 C 253.019 74.639,253.333 74.767,253.333 74.597 C 253.333 74.559,253.063 74.360,252.732 74.156 C 252.402 73.951,251.858 73.364,251.524 72.850 L 250.917 71.917 250.862 68.042 L 250.806 64.167 252.138 64.167 L 253.470 64.167 253.527 67.542 C 253.577 70.530,253.620 70.978,253.908 71.453 C 254.232 71.989,254.667 72.299,254.667 71.995 C 254.667 71.906,254.600 71.833,254.519 71.833 C 253.935 71.833,253.758 70.933,253.671 67.500 L 253.583 64.083 252.125 64.035 L 250.667 63.987 250.672 67.785 M257.617 64.105 C 257.553 64.170,257.500 65.691,257.499 67.486 C 257.498 70.967,257.437 71.258,256.570 71.914 C 256.394 72.047,256.331 72.158,256.429 72.161 C 256.611 72.167,257.160 71.623,257.434 71.167 C 257.516 71.029,257.621 69.417,257.667 67.583 L 257.750 64.250 259.123 64.202 L 260.495 64.153 260.543 69.202 L 260.591 74.250 260.587 69.167 L 260.583 64.083 259.159 64.036 C 258.375 64.009,257.682 64.041,257.617 64.105 M320.667 69.500 L 320.667 75.000 322.167 75.000 L 323.667 75.000 323.667 71.734 C 323.667 68.130,323.772 67.639,324.653 67.118 C 325.517 66.607,326.410 66.796,327.124 67.641 C 327.330 67.884,327.499 68.004,327.499 67.906 C 327.503 67.006,325.496 66.389,324.532 66.995 C 323.616 67.569,323.500 68.095,323.500 71.661 L 323.500 74.833 322.167 74.833 L 320.833 74.833 320.833 69.500 C 320.833 63.584,320.874 63.398,321.895 64.702 C 322.294 65.212,322.328 65.223,322.628 64.952 C 322.801 64.795,323.026 64.667,323.128 64.667 C 323.230 64.667,323.365 64.584,323.428 64.482 C 323.506 64.355,323.418 64.336,323.146 64.421 C 322.928 64.489,322.725 64.609,322.694 64.689 C 322.593 64.953,322.229 64.838,321.833 64.417 C 321.618 64.188,321.267 64.000,321.054 64.000 L 320.667 64.000 320.667 69.500 M155.167 69.500 L 155.167 74.833 153.833 74.833 L 152.500 74.833 152.500 69.500 L 152.500 64.167 153.833 64.167 L 155.167 64.167 155.167 69.500 M146.583 64.713 C 147.168 65.144,147.834 65.820,148.115 66.268 C 148.254 66.488,148.317 66.512,148.324 66.346 C 148.336 66.055,146.597 64.331,146.299 64.339 C 146.180 64.342,146.308 64.510,146.583 64.713 M192.789 64.917 C 194.083 66.025,194.167 66.389,194.167 70.886 L 194.167 74.833 192.833 74.833 L 191.500 74.833 191.500 71.189 L 191.500 67.545 191.061 67.106 C 190.495 66.541,189.789 66.529,189.242 67.076 C 188.842 67.476,188.670 67.954,189.000 67.750 C 189.092 67.693,189.167 67.566,189.167 67.467 C 189.167 66.857,190.328 66.660,190.882 67.176 C 191.235 67.504,191.253 67.671,191.333 71.218 L 191.417 74.917 192.917 74.917 L 194.417 74.917 194.462 71.085 L 194.506 67.254 194.002 66.229 C 193.719 65.653,193.248 65.014,192.927 64.769 C 192.092 64.132,191.994 64.237,192.789 64.917 M204.489 66.188 C 203.606 67.837,205.362 71.055,207.109 70.988 C 207.278 70.982,207.140 70.875,206.801 70.750 C 204.955 70.072,203.986 68.039,204.663 66.261 C 204.859 65.743,204.751 65.697,204.489 66.188 M271.434 66.097 C 271.289 66.476,271.309 69.132,271.458 69.224 C 271.527 69.267,271.583 68.521,271.583 67.567 C 271.583 65.695,271.584 65.706,271.434 66.097 M357.155 66.188 C 356.273 67.837,358.029 71.055,359.775 70.988 C 359.945 70.982,359.784 70.867,359.419 70.733 C 357.680 70.097,356.683 67.962,357.329 66.261 C 357.526 65.743,357.418 65.697,357.155 66.188 M274.380 66.458 C 274.219 67.040,274.266 68.833,274.447 69.013 C 274.522 69.088,274.583 68.441,274.583 67.575 C 274.583 65.859,274.568 65.776,274.380 66.458 M130.553 66.653 C 129.382 67.192,128.668 68.698,128.928 70.083 C 129.081 70.901,129.186 70.842,130.353 69.292 C 130.922 68.535,131.460 67.823,131.548 67.708 C 131.635 67.594,131.642 67.502,131.562 67.504 C 131.482 67.506,131.154 67.887,130.833 68.352 C 130.512 68.816,130.081 69.388,129.875 69.622 C 129.669 69.857,129.500 70.113,129.500 70.191 C 129.500 70.269,129.417 70.333,129.315 70.333 C 128.744 70.333,129.246 67.980,129.958 67.315 C 130.710 66.614,132.610 66.247,131.921 66.937 C 131.772 67.085,131.693 67.248,131.744 67.299 C 131.869 67.424,132.335 66.794,132.273 66.583 C 132.186 66.287,131.268 66.324,130.553 66.653 M297.386 66.657 C 296.216 67.189,295.501 68.696,295.761 70.083 C 295.914 70.901,296.020 70.842,297.186 69.292 C 297.755 68.535,298.293 67.823,298.381 67.708 C 298.469 67.594,298.475 67.502,298.395 67.504 C 298.315 67.506,297.987 67.887,297.667 68.352 C 297.346 68.816,296.915 69.388,296.708 69.622 C 296.502 69.857,296.333 70.113,296.333 70.191 C 296.333 70.269,296.250 70.333,296.148 70.333 C 295.577 70.333,296.079 67.980,296.792 67.315 C 297.536 66.621,299.444 66.246,298.762 66.929 C 298.618 67.073,298.500 67.239,298.500 67.299 C 298.500 67.359,298.659 67.248,298.854 67.054 C 299.570 66.337,298.643 66.087,297.386 66.657 M310.281 66.575 C 308.843 67.088,308.189 68.360,308.506 70.031 C 308.656 70.825,309.131 71.758,309.299 71.590 C 309.347 71.541,309.246 71.346,309.073 71.155 C 308.241 70.236,308.655 67.677,309.746 67.003 C 312.246 65.458,314.870 68.724,313.058 71.125 C 312.403 71.994,310.602 72.570,310.262 72.020 C 310.171 71.872,309.500 71.644,309.500 71.761 C 309.500 72.580,312.146 72.431,312.946 71.567 C 315.078 69.267,313.103 65.568,310.281 66.575 M338.019 66.722 C 336.971 67.282,336.493 68.148,336.532 69.417 L 336.563 70.417 336.624 69.441 C 336.728 67.768,337.706 66.667,339.089 66.667 L 339.695 66.667 339.209 67.292 C 338.646 68.015,338.448 68.333,338.559 68.333 C 338.753 68.333,339.846 66.655,339.752 66.503 C 339.574 66.215,338.780 66.315,338.019 66.722 M143.167 66.775 C 142.798 66.922,141.999 67.701,142.006 67.906 C 142.009 68.004,142.178 67.887,142.381 67.646 C 143.334 66.518,144.797 66.594,145.553 67.812 C 145.727 68.093,145.826 68.156,145.829 67.990 C 145.842 67.228,144.064 66.417,143.167 66.775 M148.430 67.083 C 148.649 67.998,148.849 68.310,148.760 67.598 C 148.715 67.239,148.596 66.864,148.494 66.764 C 148.360 66.632,148.342 66.719,148.430 67.083 M244.407 67.097 C 244.088 67.357,244.088 67.359,244.417 67.236 C 244.600 67.167,245.463 67.061,246.333 67.000 L 247.917 66.888 246.324 66.861 C 245.088 66.839,244.658 66.892,244.407 67.097 M126.111 67.778 C 125.957 67.932,125.971 71.000,126.125 71.000 C 126.194 71.000,126.250 70.250,126.250 69.333 C 126.250 68.417,126.244 67.667,126.236 67.667 C 126.228 67.667,126.172 67.717,126.111 67.778 M207.376 67.833 C 207.430 68.033,207.886 68.104,209.625 68.184 C 211.428 68.267,211.910 68.346,212.403 68.637 C 212.732 68.830,213.000 68.935,212.999 68.869 C 212.995 68.406,211.835 68.108,209.750 68.035 C 208.415 67.989,207.530 67.888,207.446 67.772 C 207.355 67.648,207.331 67.669,207.376 67.833 M305.611 67.778 C 305.460 67.929,305.474 70.868,305.628 71.109 C 305.695 71.215,305.750 70.484,305.750 69.484 C 305.750 68.485,305.744 67.667,305.736 67.667 C 305.728 67.667,305.672 67.717,305.611 67.778 M330.538 71.375 L 330.500 74.833 329.087 74.833 L 327.674 74.833 327.623 71.500 L 327.573 68.166 327.578 71.542 L 327.583 74.917 329.044 74.965 C 330.831 75.024,330.686 75.367,330.625 71.245 L 330.576 67.917 330.538 71.375 M141.833 71.494 L 141.833 74.820 140.375 74.876 L 138.917 74.931 140.458 74.966 L 142.000 75.000 142.000 71.583 C 142.000 69.704,141.962 68.167,141.917 68.167 C 141.871 68.167,141.833 69.664,141.833 71.494 M145.871 71.625 L 145.833 75.000 147.375 74.966 L 148.917 74.931 147.462 74.876 L 146.007 74.820 145.958 71.535 L 145.909 68.250 145.871 71.625 M337.460 69.583 C 337.028 70.179,336.729 70.664,336.796 70.660 C 336.964 70.650,338.538 68.500,338.377 68.500 C 338.305 68.500,337.893 68.987,337.460 69.583 M213.167 69.124 C 213.167 69.216,213.285 69.390,213.429 69.510 C 213.573 69.629,213.794 69.957,213.922 70.239 L 214.153 70.750 214.051 70.250 C 213.954 69.773,213.167 68.770,213.167 69.124 M365.833 69.129 C 365.833 69.219,365.944 69.385,366.080 69.497 C 367.183 70.412,366.999 72.649,365.722 73.866 C 364.804 74.741,364.314 74.833,360.589 74.833 L 357.167 74.833 357.167 73.500 L 357.167 72.167 360.301 72.167 C 362.630 72.167,363.513 72.110,363.736 71.947 C 364.079 71.696,364.038 71.151,363.667 71.028 C 363.450 70.957,363.448 70.984,363.651 71.230 C 364.073 71.740,363.634 71.825,360.329 71.871 L 357.083 71.917 357.035 73.458 L 356.987 75.000 360.563 75.000 C 365.157 75.000,365.672 74.809,366.730 72.717 C 367.027 72.129,367.097 70.579,366.833 70.417 C 366.742 70.360,366.665 70.187,366.664 70.032 C 366.662 69.877,366.475 69.573,366.247 69.358 C 366.020 69.142,365.833 69.039,365.833 69.129 M274.672 69.443 C 274.649 70.275,276.810 71.937,278.121 72.096 C 278.603 72.155,278.672 72.136,278.417 72.015 C 278.233 71.928,277.942 71.851,277.768 71.845 C 276.907 71.813,275.940 71.047,274.911 69.583 C 274.783 69.400,274.675 69.337,274.672 69.443 M271.746 69.977 C 271.922 71.121,274.224 73.883,275.212 74.136 C 275.412 74.187,275.242 74.032,273.941 72.974 C 273.253 72.415,272.292 71.028,271.901 70.029 L 271.660 69.417 271.746 69.977 M236.175 70.683 C 235.645 71.799,234.489 73.067,233.433 73.690 C 232.966 73.965,232.771 74.137,233.000 74.071 C 234.164 73.740,236.284 71.501,236.591 70.279 C 236.760 69.607,236.623 69.739,236.175 70.683 M133.833 70.888 C 133.833 71.156,133.139 71.833,132.864 71.833 C 132.756 71.833,132.667 71.917,132.667 72.019 C 132.667 72.265,133.493 71.719,133.898 71.206 L 134.212 70.806 135.106 71.689 C 135.598 72.175,136.000 72.653,136.000 72.751 C 136.000 72.990,134.667 74.257,134.268 74.397 C 134.094 74.458,133.994 74.550,134.045 74.601 C 134.319 74.874,136.167 73.309,136.167 72.803 C 136.167 72.641,135.765 72.093,135.275 71.587 C 134.420 70.704,133.833 70.420,133.833 70.888 M281.513 71.167 C 281.164 71.466,280.584 71.733,280.013 71.857 C 279.502 71.969,279.215 72.090,279.376 72.126 C 279.782 72.217,280.796 71.876,281.538 71.399 C 282.359 70.872,282.385 70.879,282.835 71.752 C 283.047 72.166,283.322 72.588,283.444 72.689 C 283.965 73.122,283.383 73.737,281.861 74.362 C 281.229 74.621,281.182 74.666,281.611 74.598 C 282.279 74.492,283.833 73.545,283.833 73.245 C 283.833 72.916,282.449 70.665,282.251 70.673 C 282.159 70.677,281.827 70.899,281.513 71.167 M300.667 70.888 C 300.667 71.156,299.972 71.833,299.698 71.833 C 299.589 71.833,299.500 71.917,299.500 72.019 C 299.500 72.265,300.327 71.719,300.731 71.206 L 301.045 70.806 301.939 71.689 C 302.431 72.175,302.833 72.653,302.833 72.751 C 302.833 72.990,301.500 74.257,301.101 74.397 C 300.928 74.458,300.827 74.550,300.879 74.601 C 301.152 74.874,303.000 73.309,303.000 72.803 C 303.000 72.641,302.599 72.093,302.108 71.587 C 301.253 70.704,300.667 70.420,300.667 70.888 M340.861 71.450 C 340.184 72.156,340.172 72.183,340.673 71.892 C 340.966 71.722,341.322 71.410,341.463 71.198 L 341.719 70.812 342.776 71.859 C 344.087 73.158,344.175 73.000,342.891 71.654 C 341.777 70.486,341.786 70.487,340.861 71.450 M214.192 71.288 C 214.063 74.060,212.718 74.825,207.958 74.830 L 204.500 74.833 204.500 73.500 L 204.500 72.167 207.635 72.167 C 209.964 72.167,210.847 72.110,211.070 71.947 C 211.413 71.696,211.371 71.151,211.000 71.028 C 210.788 70.958,210.784 70.987,210.973 71.216 C 211.424 71.762,211.042 71.833,207.657 71.833 L 204.333 71.833 204.333 73.417 L 204.333 75.000 207.903 75.000 C 211.068 75.000,211.558 74.963,212.228 74.676 C 213.446 74.154,214.472 72.418,214.285 71.196 C 214.223 70.794,214.214 70.803,214.192 71.288 M126.347 71.509 C 126.311 72.193,128.164 74.327,129.012 74.579 C 129.245 74.648,129.091 74.488,128.647 74.200 C 127.819 73.664,127.091 72.811,126.641 71.850 C 126.487 71.520,126.354 71.367,126.347 71.509 M305.930 71.875 C 306.250 72.886,307.902 74.668,308.517 74.666 C 308.645 74.666,308.441 74.459,308.064 74.208 C 307.229 73.651,306.579 72.897,306.245 72.098 C 305.971 71.441,305.740 71.278,305.930 71.875 M255.294 72.285 C 255.501 72.324,255.801 72.323,255.960 72.281 C 256.120 72.239,255.950 72.207,255.583 72.209 C 255.217 72.211,255.086 72.245,255.294 72.285 M49.292 73.118 C 49.498 73.157,49.835 73.157,50.042 73.118 C 50.248 73.078,50.079 73.045,49.667 73.045 C 49.254 73.045,49.085 73.078,49.292 73.118 M343.073 73.515 C 342.479 74.141,341.532 74.651,340.417 74.946 L 339.583 75.167 340.333 75.090 C 341.436 74.977,343.058 74.030,343.559 73.208 C 343.774 72.857,343.586 72.975,343.073 73.515 M231.583 74.421 C 230.876 74.654,231.107 74.737,231.979 74.563 C 232.266 74.505,232.500 74.393,232.500 74.313 C 232.500 74.135,232.427 74.143,231.583 74.421 M275.583 74.296 C 275.675 74.388,275.938 74.517,276.167 74.583 C 276.444 74.664,276.528 74.649,276.417 74.537 C 276.325 74.446,276.063 74.316,275.833 74.250 C 275.556 74.169,275.472 74.185,275.583 74.296 M313.417 74.452 C 313.142 74.602,312.617 74.819,312.250 74.934 C 311.805 75.075,311.707 75.148,311.957 75.156 C 312.396 75.169,314.000 74.499,314.000 74.302 C 314.000 74.131,314.012 74.128,313.417 74.452 M225.333 74.792 C 225.333 74.949,225.935 74.999,227.792 74.997 C 231.266 74.994,231.467 74.697,228.038 74.633 C 225.958 74.595,225.333 74.631,225.333 74.792 M260.175 75.205 C 259.763 76.580,258.707 77.760,257.228 78.498 C 256.873 78.675,256.675 78.823,256.787 78.827 C 257.858 78.862,260.093 76.528,260.411 75.042 C 260.576 74.267,260.424 74.372,260.175 75.205 M129.500 74.813 C 129.500 74.893,129.734 75.005,130.021 75.063 C 130.928 75.244,131.112 75.153,130.333 74.908 C 129.437 74.625,129.500 74.633,129.500 74.813 M132.917 74.927 L 132.083 75.155 132.812 75.090 C 133.213 75.055,133.621 74.945,133.720 74.846 C 133.819 74.748,133.866 74.674,133.825 74.683 C 133.784 74.691,133.375 74.801,132.917 74.927 M253.602 74.835 C 253.699 74.932,254.072 75.045,254.431 75.084 C 254.790 75.124,254.933 75.117,254.750 75.068 C 254.567 75.020,254.193 74.908,253.920 74.819 C 253.570 74.705,253.476 74.710,253.602 74.835 M256.333 74.942 L 255.750 75.177 256.365 75.101 C 256.822 75.044,256.959 75.080,256.898 75.240 C 256.749 75.627,255.939 75.900,254.667 75.992 L 253.417 76.083 253.417 77.583 L 253.417 79.083 254.818 79.132 C 255.588 79.159,256.284 79.116,256.363 79.037 C 256.444 78.956,255.886 78.925,255.087 78.967 L 253.667 79.042 253.667 77.688 L 253.667 76.333 254.544 76.333 C 255.501 76.333,256.545 75.891,257.038 75.276 C 257.566 74.618,257.369 74.524,256.333 74.942 M276.907 74.818 C 277.155 75.219,281.000 75.225,281.000 74.824 C 281.000 74.742,280.756 74.724,280.458 74.784 C 279.693 74.937,278.375 74.939,277.529 74.788 C 277.081 74.708,276.846 74.719,276.907 74.818 M296.333 74.813 C 296.333 74.893,296.568 75.005,296.854 75.063 C 297.762 75.244,297.945 75.153,297.167 74.908 C 296.270 74.625,296.333 74.633,296.333 74.813 M299.750 74.927 L 298.917 75.155 299.645 75.090 C 300.046 75.055,300.455 74.945,300.554 74.846 C 300.652 74.748,300.700 74.674,300.658 74.683 C 300.617 74.691,300.208 74.801,299.750 74.927 M308.917 74.813 C 309.008 74.906,309.421 75.024,309.833 75.075 C 310.355 75.138,310.456 75.124,310.167 75.027 C 309.286 74.732,308.747 74.640,308.917 74.813 M337.113 74.846 C 337.212 74.945,337.621 75.059,338.021 75.099 L 338.750 75.172 337.917 74.927 C 336.893 74.625,336.892 74.625,337.113 74.846 M52.037 75.677 C 52.045 75.960,52.105 76.100,52.172 75.992 C 52.281 75.816,52.204 75.167,52.075 75.167 C 52.046 75.167,52.029 75.396,52.037 75.677 M47.028 75.583 C 47.026 75.767,47.088 76.067,47.167 76.250 C 47.349 76.675,47.349 76.237,47.167 75.667 C 47.059 75.332,47.032 75.315,47.028 75.583 M42.083 80.082 C 42.083 80.661,42.140 81.099,42.208 81.057 C 42.369 80.958,42.367 79.478,42.206 79.224 C 42.138 79.118,42.083 79.504,42.083 80.082 M99.417 84.333 C 99.417 84.774,99.473 85.100,99.542 85.058 C 99.610 85.015,99.667 84.689,99.667 84.333 C 99.667 83.977,99.610 83.652,99.542 83.609 C 99.473 83.567,99.417 83.893,99.417 84.333 M58.181 84.059 C 58.219 84.092,58.512 84.167,58.833 84.226 C 59.244 84.301,59.343 84.284,59.167 84.169 C 58.941 84.021,58.015 83.918,58.181 84.059 M58.833 89.106 L 58.083 89.335 58.736 89.257 C 59.094 89.214,59.466 89.101,59.561 89.006 C 59.656 88.911,59.700 88.843,59.658 88.855 C 59.617 88.867,59.246 88.980,58.833 89.106 M70.058 89.294 C 69.952 89.362,70.263 89.417,70.750 89.417 C 71.237 89.417,71.548 89.362,71.442 89.294 C 71.337 89.227,71.025 89.172,70.750 89.172 C 70.475 89.172,70.163 89.227,70.058 89.294 M100.356 91.698 C 100.344 92.312,100.390 92.849,100.458 92.891 C 100.527 92.934,100.562 92.582,100.535 92.109 C 100.456 90.689,100.380 90.515,100.356 91.698 M73.212 91.833 C 73.212 92.246,73.245 92.415,73.284 92.208 C 73.324 92.002,73.324 91.665,73.284 91.458 C 73.245 91.252,73.212 91.421,73.212 91.833 M47.186 94.615 C 47.175 95.091,47.224 95.516,47.295 95.559 C 47.365 95.603,47.399 95.326,47.369 94.944 C 47.283 93.823,47.207 93.686,47.186 94.615 M70.460 94.285 C 70.668 94.324,70.968 94.323,71.127 94.281 C 71.286 94.239,71.117 94.207,70.750 94.209 C 70.383 94.211,70.253 94.245,70.460 94.285 M86.943 97.792 C 86.901 97.860,87.090 97.925,87.364 97.935 C 87.694 97.947,87.786 97.906,87.639 97.813 C 87.362 97.637,87.044 97.627,86.943 97.792 M71.583 102.417 C 71.583 102.903,71.638 103.215,71.706 103.109 C 71.773 103.003,71.828 102.692,71.828 102.417 C 71.828 102.142,71.773 101.830,71.706 101.724 C 71.638 101.618,71.583 101.930,71.583 102.417 " stroke="none" fill="#f4f4e4" fill-rule="evenodd"></path></g></svg>