<svg width="24" height="24" viewBox="0 0 24 24" fill="none" xmlns="http://www.w3.org/2000/svg">
<path d="M6.75 7C6.33579 7 6 7.33579 6 7.75C6 8.16421 6.33579 8.5 6.75 8.5V7ZM12 8.5C12.4142 8.5 12.75 8.16421 12.75 7.75C12.75 7.33579 12.4142 7 12 7V8.5ZM6.75 8.5H12V7H6.75V8.5Z" fill="#160042"/>
<path d="M6.75 11.25C6.33579 11.25 6 11.5858 6 12C6 12.4142 6.33579 12.75 6.75 12.75V11.25ZM12 12.75C12.4142 12.75 12.75 12.4142 12.75 12C12.75 11.5858 12.4142 11.25 12 11.25V12.75ZM6.75 12.75H12V11.25H6.75V12.75Z" fill="#160042"/>
<path d="M17.25 17C17.6642 17 18 16.6642 18 16.25C18 15.8358 17.6642 15.5 17.25 15.5V17ZM6.75 15.5C6.33579 15.5 6 15.8358 6 16.25C6 16.6642 6.33579 17 6.75 17V15.5ZM17.25 15.5H6.75V17H17.25V15.5Z" fill="#160042"/>
<path d="M15.25 8L17.25 10L15.25 12" stroke="#160042" stroke-width="1.5" stroke-linecap="round" stroke-linejoin="round"/>
</svg>
