<svg xmlns="http://www.w3.org/2000/svg" xmlns:xlink="http://www.w3.org/1999/xlink" version="1.1" width="940" height="788" viewBox="0 0 940 788" xml:space="preserve">
<desc>Created with Fabric.js 3.5.0</desc>
<defs>
</defs>
<rect x="0" y="0" width="100%" height="100%" fill="#4918f1"/>
<g transform="matrix(5.6478 0 0 4.7345 467.6614 395.9576)" id="666355" clip-path="url(#CLIPPATH_1130)">
<filter id="SVGID_1128" y="-62.4%" height="224.8%" x="-56.08%" width="212.16%">
	<feGaussianBlur in="SourceAlpha" stdDeviation="17.5"/>
	<feOffset dx="22" dy="32" result="oBlur"/>
	<feFlood flood-color="rgb(0,0,0)" flood-opacity="1"/>
	<feComposite in2="oBlur" operator="in"/>
	<feMerge>
		<feMergeNode/>
		<feMergeNode in="SourceGraphic"/>
	</feMerge>
</filter>
<clipPath id="CLIPPATH_1130">
	<rect transform="matrix(1 0 0 1 0.0001 0.0002)" id="clip0_302_100" x="-79" y="-79" rx="0" ry="0" width="158" height="158"/>
</clipPath>
<path style="stroke: rgb(39,6,212); stroke-width: 13; stroke-dasharray: none; stroke-linecap: butt; stroke-dashoffset: 0; stroke-linejoin: miter; stroke-miterlimit: 4; is-custom-font: none; font-file-url: none; fill: rgb(135,18,218); fill-opacity: 0.26; fill-rule: nonzero; opacity: 0.5;filter: url(#SVGID_1128);" vector-effect="non-scaling-stroke" transform=" translate(-78.9999, -78.9998)" d="M 154.685 0.000367219 H 3.31409 C 1.48378 0.000367219 0 1.48415 0 3.31478 V 154.686 C 0 156.516 1.48378 158 3.31409 158 H 154.685 C 156.515 158 157.999 156.516 157.999 154.686 V 3.31478 C 158 3.26912 158 3.22347 157.999 3.17813 C 157.962 1.38523 156.478 -0.0373614 154.685 0.000367219 Z" stroke-linecap="round"/>
</g>
<g transform="matrix(11.7687 0 0 9.9968 470.0005 394.0001)" id="226281">
<filter id="SVGID_1129" y="-165.01%" height="430.02%" x="-163.35%" width="426.7%">
	<feGaussianBlur in="SourceAlpha" stdDeviation="40.5"/>
	<feOffset dx="5" dy="6" result="oBlur"/>
	<feFlood flood-color="rgb(189,197,208)" flood-opacity="1"/>
	<feComposite in2="oBlur" operator="in"/>
	<feMerge>
		<feMergeNode/>
		<feMergeNode in="SourceGraphic"/>
	</feMerge>
</filter>
<path style="stroke: none; stroke-width: 1; stroke-dasharray: none; stroke-linecap: butt; stroke-dashoffset: 0; stroke-linejoin: miter; stroke-miterlimit: 4; is-custom-font: none; font-file-url: none; fill: rgb(18,19,218); fill-opacity: 0.74; fill-rule: evenodd; opacity: 1;filter: url(#SVGID_1129);" vector-effect="non-scaling-stroke" transform=" translate(-799.9783, -240.003)" d="M 828.776 237.723 l -11.4 8.657 a 3 3 0 0 0 -0.993 1.3 a 2.948 2.948 0 0 0 -0.162 1.618 l 3.078 17.135 a 3 3 0 0 1 -1.275 3.011 a 3.161 3.161 0 0 1 -3.326 0.147 l -13.174 -7.409 a 3.156 3.156 0 0 0 -3.09 0 L 785.257 269.6 a 3.164 3.164 0 0 1 -1.55 0.4 a 3.13 3.13 0 0 1 -1.777 -0.551 a 3 3 0 0 1 -1.274 -3.011 l 3.076 -17.135 a 2.929 2.929 0 0 0 -0.16 -1.618 a 3 3 0 0 0 -0.993 -1.3 l -11.4 -8.657 a 3 3 0 0 1 -1.117 -3.085 a 3.069 3.069 0 0 1 2.391 -2.285 l 14.654 -2.967 a 3.129 3.129 0 0 0 1.28 -0.577 a 3.02 3.02 0 0 0 0.885 -1.074 l 7.914 -16.018 a 3.131 3.131 0 0 1 5.586 0 l 7.91 16.018 a 3.028 3.028 0 0 0 0.884 1.074 a 3.162 3.162 0 0 0 1.281 0.577 l 14.655 2.967 a 3.07 3.07 0 0 1 2.394 2.285 A 3 3 0 0 1 828.776 237.723 Z m -17.121 -2.454 a 9.22 9.22 0 0 1 -3.713 -1.675 a 9.12 9.12 0 0 1 -2.647 -3.216 L 800 219.658 v 36.125 a 9.188 9.188 0 0 1 4.451 1.166 l 7.839 4.409 l -1.976 -10.994 a 9.01 9.01 0 0 1 3.454 -8.781 l 6.122 -4.647 Z" stroke-linecap="round"/>
</g>
</svg>